<svg xmlns="http://www.w3.org/2000/svg" xmlns:xlink="http://www.w3.org/1999/xlink" width="277.494" height="341.081" viewBox="0 0 277.494 341.081">
  <defs>
    <clipPath id="clip-path">
      <path id="Path_222" data-name="Path 222" d="M565.945,857.162c.928,2.628,31.9,28.247,33.4,28.507s35.088,6.308,37.389,6.422c1.319.067,3.814-5.984,5.7-11.146-5.545-.01-22.6.336-29.778-7.64-8.164-9.063-5.931-25.406-5.07-30.717,1.58-9.738,11.449-17.614,16.392-21.118a19.3,19.3,0,0,1,12.848-3.268c-.218-1.961-.8-3.511-1.869-4.108-3.091-1.727-59.138-.5-59.943-.071s-3.874,6.773-4.828,7.676-3,4.757-4.129,5.862S565.017,854.54,565.945,857.162Z" transform="translate(-565.228 -813.198)" fill="none"/>
    </clipPath>
    <clipPath id="clip-path-2">
      <path id="Path_227" data-name="Path 227" d="M588.96,1017.635c.218,1.747,3.654,16.068-1.342,25.332s-10.1,9.626-13.054,9.469c-5.215-.276-13.414-6.784-15.15-21.125s.093-18.157.093-18.157Z" transform="translate(-558.665 -1013.154)" fill="none"/>
    </clipPath>
    <clipPath id="clip-path-3">
      <path id="Path_236" data-name="Path 236" d="M553.531,904.819c2.033-2.46,4.3-11.163,3.881-22.266s-3.988-18.778-9.892-24.158c-3.871-3.527-8.75-8.188-23.842-5.16s-20.906,16.433-22.006,25.7-1.8,18.963-1.014,19.556,36.97,7.1,40.874,7.189S551.738,906.989,553.531,904.819Z" transform="translate(-500.322 -852.258)" fill="none"/>
    </clipPath>
    <clipPath id="clip-path-4">
      <path id="Path_239" data-name="Path 239" d="M681.264,1041.758c2.637,1.564-10.222,5.057-12.476,4.651s-44.888-10.126-45.052-11.041a2.05,2.05,0,0,1,1.8-2.5c1.658-.325,12.927-3.19,14.3-3.289S680.644,1041.39,681.264,1041.758Z" transform="translate(-623.696 -1029.581)" fill="none"/>
    </clipPath>
    <clipPath id="clip-path-5">
      <path id="Path_242" data-name="Path 242" d="M853.737,774.15c2.208-2.623,3.693-8.2,2.8-20.658s-5.74-33.547-9.093-39.57-7.252-9.825-14.49-9.958c-7.665-.141-22.765.455-31.292,2.238-5.786,1.21-12.965,9.417-11.6,16.834.879,4.778,3.355,17.713,4.611,23.607s.694,17.486.506,20.7-6.535,26.241-9.34,35.046c-3.509,11.01-7.665,15.159-12.175,16.316,7.072-.367,52.8-5.029,52.8-5.029Z" transform="translate(-773.666 -703.945)" fill="none"/>
    </clipPath>
    <clipPath id="clip-path-6">
      <path id="Path_248" data-name="Path 248" d="M987.83,1092.247c5.551-.135,21.481-7.1,19.54-35.541s-17.682-36.126-26.2-35.516c-5.262.377-22.1,7.519-20.476,34.123S978.012,1092.486,987.83,1092.247Z" transform="translate(-960.585 -1021.158)" fill="none"/>
    </clipPath>
    <clipPath id="clip-path-7">
      <path id="Path_256" data-name="Path 256" d="M984.824,950.183a21.09,21.09,0,0,0-9.554.683c-5.985,1.817-15.731,4.644-20.8,4.921s-22.905.085-29.255,5.073-12.133,17.51-21.9,17.234c1.067-10.375,4.636-28.583,8.453-33.588s11.481-17.8,27.577-19.786S979.626,928.1,984.824,950.183Z" transform="translate(-903.319 -924.339)" fill="none"/>
    </clipPath>
    <clipPath id="clip-path-8">
      <path id="Path_263" data-name="Path 263" d="M575.5,745.857c2.776,2.468,9.876,5.456,14.7,5.6,5.489.164,35.9-2.752,40.3-3.44,2.874-.445,10-.844,14.093-1.67-2.943-1.381-11.634-2.72-17.866-3.07-7.266-.4-25.66,1.835-27.367,1.312s-6.668-2.4-9.438-2.2-13.47,2.355-14.268,2.874C575.571,745.312,575.525,745.521,575.5,745.857Z" transform="translate(-575.499 -742.373)" fill="none"/>
    </clipPath>
  </defs>
  <g id="delivery-boy" transform="translate(-234.422 -169.769)">
    <path id="Path_211" data-name="Path 211" d="M527.9,1125.166c14.33-37.829-110.908-12.563-155.59-34.8-51.189-28.839-6.69,18.872-38.985,15.975-32.619-2.925-81.784-1.056-81.784,16.3,0,15.8,32.467,10.244,73.677,9.468s70.81-4.282,113.863,2.853S518.2,1150.753,527.9,1125.166Z" transform="translate(-17.114 -631.491)" fill="#030404" opacity="0.18"/>
    <g id="Group_336" data-name="Group 336" transform="translate(308.797 301.694)">
      <g id="Group_317" data-name="Group 317" transform="translate(78.91 0)">
        <path id="Path_212" data-name="Path 212" d="M993.306,680.142c.808.267,2.354,1.131,4.111,1.7.891.289,4.962,1.918,5.726,1.585s1.7-2.117,1.173-2.4-8.051-2.95-8.43-3.062S993.306,680.142,993.306,680.142Z" transform="translate(-924.837 -657.959)" fill="#7e7160"/>
        <path id="Path_213" data-name="Path 213" d="M1007.774,669.37c.649,0,1.5.867,3.982,1.2a56.012,56.012,0,0,0,11.743.738c1.941-.091,4.388-.268,4.8-.344.072-.933,2.228-1.273,2.436.336a1.332,1.332,0,0,1-2.439.917c-.28-.026-3.36.3-5.073.373a98.074,98.074,0,0,1-12.611-.5,34.346,34.346,0,0,1-3.524-.63A12.583,12.583,0,0,0,1007.774,669.37Z" transform="translate(-934.495 -651.938)" fill="#d0cfcd"/>
        <path id="Path_214" data-name="Path 214" d="M787.766,671.943c.508-.126.586,1.7.127,1.78s-12.323.881-12.857,1.2c-.578.343-1.9.739-1.985-.508-.079-1.108.864-1.546,1.876-1.016C777.615,673.346,787.128,672.1,787.766,671.943Z" transform="translate(-770.425 -653.738)" fill="#d0cfcd"/>
        <path id="Path_215" data-name="Path 215" d="M782.617,678.217c-.794.007-16.914,4.8-17.451,4.425s-1.243-3.11-.688-3.127,17.562-3.76,17.562-3.76Z" transform="translate(-764.276 -656.414)" fill="#7e7160"/>
        <path id="Path_216" data-name="Path 216" d="M876.1,628.021c-1.873-.237-8.189-.342-8.453-1.437s.243-4.378-.541-7.569-2.48-7.43-7.617-7.9-9.778,2.091-11.63,3.43-8.808,7.867-11,8.395-18.8,4.314-18.679,4.769.633,6.264,1.471,6.3,16.477-.529,17.8-.16,4.022,1.753,4.385,6.83,12.231-.225,12.231-.225-.5-3.119.006-3.8,3.29-2.323,8.439-2.645a50.46,50.46,0,0,1,8.347-.04c.567.145,4.551-3.421,5.387-3.818C876.524,630.015,876.1,628.021,876.1,628.021Z" transform="translate(-802.068 -611.061)" fill="#230d11"/>
        <path id="Path_217" data-name="Path 217" d="M836.864,622.941c2.189-.528,9.144-7.056,11-8.395s6.494-3.9,11.63-3.43a7.882,7.882,0,0,1,3.107.912c.787,1.08,1.308,2.152.7,1.851-2.369-2.245-5.385-2.071-8.985-.839s-4.5,8.046-4.563,9.164,0,4.871-2.537,5.818a110.272,110.272,0,0,1-12.48,3.119c-1.285.151-11.623,1.37-15.687,1.788-.478-1.709-.773-4.888-.865-5.22C818.06,627.255,834.675,623.469,836.864,622.941Z" transform="translate(-802.068 -611.061)" fill="#ffc21b"/>
        <path id="Path_218" data-name="Path 218" d="M934.476,615.087c2.233-.16,7.7,1.687,7.808,10.575.093,7.787-5.393,10.221-8.254,10.425-2.769.2-8.351-2.565-8.065-10.278C926.27,617.623,929.769,615.424,934.476,615.087Z" transform="translate(-877.62 -613.877)" fill="#e1f4fb"/>
      </g>
      <path id="Path_219" data-name="Path 219" d="M786.949,912.785c1.457-2.981,4.572-17.8,3.7-27.373s-3.58-16.335-8.387-17.383-6.374,19.847-6.374,19.847,4.38,17.129,4.116,17.334S786.949,912.785,786.949,912.785Z" transform="translate(-693.508 -791.181)" fill="#a2701e"/>
      <path id="Path_220" data-name="Path 220" d="M565.945,857.162c.928,2.628,31.9,28.247,33.4,28.507s35.088,6.308,37.389,6.422c1.319.067,3.814-5.984,5.7-11.146-5.545-.01-22.6.336-29.778-7.64-8.164-9.063-5.931-25.406-5.07-30.717,1.58-9.738,11.449-17.614,16.392-21.118a19.3,19.3,0,0,1,12.848-3.268c-.218-1.961-.8-3.511-1.869-4.108-3.091-1.727-59.138-.5-59.943-.071s-3.874,6.773-4.828,7.676-3,4.757-4.129,5.862S565.017,854.54,565.945,857.162Z" transform="translate(-545.824 -752.768)" fill="#ffc21b"/>
      <g id="Group_319" data-name="Group 319" transform="translate(19.404 60.429)">
        <g id="Group_318" data-name="Group 318" clip-path="url(#clip-path)">
          <path id="Path_221" data-name="Path 221" d="M577.532,780.418c-.11,1.026.067,2.962,1.973,2.92s21.1.623,26.088.266,28.018-1.314,33-1.709c2.4-.194,7.679-.271,8.681-1.829S646.83,765.19,646.127,764a2.207,2.207,0,0,0-.957-.688c-4.088.827-11.218,1.225-14.093,1.67-4.4.688-34.813,3.6-40.3,3.44-4.82-.145-11.92-3.133-14.7-5.6C575.847,765.881,577.633,779.487,577.532,780.418Z" transform="translate(-572.821 -777.884)" fill="#a2701e"/>
        </g>
      </g>
      <path id="Path_223" data-name="Path 223" d="M709.771,884.753c7.179,7.976,24.233,7.63,29.778,7.64,1.4-3.824,2.455-7.162,2.455-7.162a13.113,13.113,0,0,1-8.218-4.606c-2.857-3.6-4.091-16.964-3.991-20.774s.387-14.039,2.393-18.452a25.921,25.921,0,0,0,1.754-11.749,19.3,19.3,0,0,0-12.848,3.269c-4.943,3.5-14.812,11.38-16.392,21.118C703.84,859.348,701.607,875.69,709.771,884.753Z" transform="translate(-642.943 -764.217)" fill="#be911b"/>
      <path id="Path_224" data-name="Path 224" d="M598.9,1024.6c-.02,2.321.48,9.308-4.117,16.378s-9.693,11.053-17.85,11.172-17.222-7.8-19.834-19.673-2.956-20.355-.88-25.049c1.391-3.145,19,5.826,30.91,10.812a31.487,31.487,0,0,0,10.85,2.48Z" transform="translate(-538.565 -888.475)" fill="#0b0b0c"/>
      <path id="Path_225" data-name="Path 225" d="M588.96,1017.635c.218,1.747,3.654,16.068-1.342,25.332s-10.1,9.626-13.054,9.469c-5.215-.276-13.414-6.784-15.15-21.125s.093-18.157.093-18.157Z" transform="translate(-541.223 -892.947)" fill="#f7e7c4"/>
      <g id="Group_321" data-name="Group 321" transform="translate(17.442 120.207)">
        <g id="Group_320" data-name="Group 320" clip-path="url(#clip-path-2)">
          <path id="Path_226" data-name="Path 226" d="M680.376,1051.206c2.637,1.564-10.222,5.057-12.476,4.652s-43.956-9.868-44.121-10.783,0-3,1.663-3.323,12.132-2.623,13.51-2.722S679.756,1050.838,680.376,1051.206Z" transform="translate(-604.278 -1031.294)" fill="#ddc79f"/>
        </g>
      </g>
      <path id="Path_228" data-name="Path 228" d="M598.4,1007.131a3.28,3.28,0,0,1,.1.642c.315,3.272-.023,16.47-2.07,19.874-2.239,3.722-4.752,6.5-8.836,6.328s-11.707-6.863-12.084-21.217c-.326-12.415.434-14.69.434-14.69l22.491,9.18" transform="translate(-552.98 -882.37)" fill="#230d11"/>
      <path id="Path_229" data-name="Path 229" d="M614.554,1017.872c.545,2,1.932,23.985-7.484,24.658s-8.325-24.37-8.325-24.37Z" transform="translate(-569.295 -896.255)" fill="#d0cfcd"/>
      <path id="Path_230" data-name="Path 230" d="M608.51,1010.83c.512,2.15,1.789,22.424-5.265,23.668s-9.028-10.77-8.877-13.842,1.179-9.548,1.179-9.548C594.875,1010.878,608.51,1010.83,608.51,1010.83Z" transform="translate(-566.247 -891.318)" fill="#f0f0f0"/>
      <path id="Path_231" data-name="Path 231" d="M607.151,1036.116c.6-.043,2.1,1.081,2.284,3.712s-.869,3.726-1.748,3.79c-1.5.109-2.64-1.572-2.757-3.861S605.559,1036.23,607.151,1036.116Z" transform="translate(-573.649 -909.044)" fill="#5e513d"/>
      <path id="Path_232" data-name="Path 232" d="M604.578,1038.294c.6-.035,2.055.51,2.243,3.14s-.749,3.154-1.622,3.267-2.3-1.083-2.422-3.371S603.862,1038.334,604.578,1038.294Z" transform="translate(-572.143 -910.57)" fill="#7e7160"/>
      <path id="Path_233" data-name="Path 233" d="M580.192,902.433c2.248.3,11.731.9,13.234-1.435s3.6-11.948,3.532-20.664-4.308-22.608-11.633-27.744-18.7-7.2-27.534-2.3-2.693,37.583-2.33,37.464S580.192,902.433,580.192,902.433Z" transform="translate(-537.284 -776.819)" fill="#a2701e"/>
      <path id="Path_234" data-name="Path 234" d="M553.531,904.819c2.033-2.46,4.3-11.163,3.881-22.266s-3.988-18.778-9.892-24.158c-3.871-3.527-8.75-8.188-23.842-5.16s-20.906,16.433-22.006,25.7-1.8,18.963-1.014,19.556,36.97,7.1,40.874,7.189S551.738,906.989,553.531,904.819Z" transform="translate(-500.322 -780.152)" fill="#ffc21b"/>
      <g id="Group_323" data-name="Group 323" transform="translate(0 72.107)">
        <g id="Group_322" data-name="Group 322" clip-path="url(#clip-path-3)">
          <path id="Path_235" data-name="Path 235" d="M510.348,888.676c-.737-7.048-3.35-14.159-8.586-18.935-8.84-8.064-23.544-7.238-33.071,0s-14.273,19.466-14.907,31.415c-.23,4.331.083,8.9,2.371,12.584,3.709,5.972,11.452,7.947,18.471,8.345,8.114.46,21.854.678,28.5-5.124C510.1,910.876,511.231,897.116,510.348,888.676Z" transform="translate(-467.652 -860.489)" fill="#be911b" opacity="0.6"/>
        </g>
      </g>
      <path id="Path_237" data-name="Path 237" d="M679.852,1043.876c2.636,1.564-10.222,5.057-12.476,4.651s-43.957-9.868-44.121-10.783,0-3,1.663-3.323,12.132-2.623,13.51-2.721S679.232,1043.508,679.852,1043.876Z" transform="translate(-586.469 -905.948)" fill="#810c16"/>
      <path id="Path_238" data-name="Path 238" d="M681.264,1041.758c2.637,1.564-10.222,5.057-12.476,4.651s-44.888-10.126-45.052-11.041a2.05,2.05,0,0,1,1.8-2.5c1.658-.325,12.927-3.19,14.3-3.289S680.644,1041.39,681.264,1041.758Z" transform="translate(-586.813 -904.463)" fill="#f7e7c4"/>
      <g id="Group_325" data-name="Group 325" transform="translate(36.883 125.118)">
        <g id="Group_324" data-name="Group 324" clip-path="url(#clip-path-4)">
          <line id="Line_27" data-name="Line 27" x1="50.77" y1="12.847" transform="translate(1.397 1.261)" fill="none" stroke="#0b0b0c" stroke-miterlimit="10" stroke-width="2"/>
          <line id="Line_28" data-name="Line 28" x1="51.091" y1="11.794" transform="translate(-0.614 3.568)" fill="none" stroke="#0b0b0c" stroke-miterlimit="10" stroke-width="2"/>
          <line id="Line_29" data-name="Line 29" x1="46.41" y1="12.726" transform="translate(6.934 -0.144)" fill="none" stroke="#0b0b0c" stroke-miterlimit="10" stroke-width="2"/>
        </g>
      </g>
      <path id="Path_240" data-name="Path 240" d="M853.737,774.15c2.208-2.623,3.693-8.2,2.8-20.658s-5.74-33.547-9.093-39.57-7.252-9.825-14.49-9.958c-7.665-.141-22.765.455-31.292,2.238-5.786,1.21-12.965,9.417-11.6,16.834.879,4.778,3.355,17.713,4.611,23.607s.694,17.486.506,20.7-6.535,26.241-9.34,35.046c-3.509,11.01-7.665,15.159-12.175,16.316,7.072-.367,52.8-5.029,52.8-5.029Z" transform="translate(-691.949 -676.177)" fill="#ffc21b"/>
      <g id="Group_327" data-name="Group 327" transform="translate(81.717 27.768)">
        <g id="Group_326" data-name="Group 326" clip-path="url(#clip-path-5)">
          <path id="Path_241" data-name="Path 241" d="M971.629,951.127a21.084,21.084,0,0,0-9.554.683c-5.985,1.817-15.731,4.644-20.8,4.921s-22.905.085-29.255,5.073-12.133,17.51-21.9,17.234c1.067-10.375,4.635-28.583,8.453-33.588s11.48-17.8,27.577-19.786S966.432,929.046,971.629,951.127Z" transform="translate(-855.309 -859.113)" fill="#670810"/>
        </g>
      </g>
      <path id="Path_243" data-name="Path 243" d="M986.451,870.222c3.847-.693,8.629,2.426,9.462,7.117.855,4.81-1.494,6.771-3.725,6.946-3.182.251-7.888-1.338-9.026-7.519S986.451,870.222,986.451,870.222Z" transform="translate(-838.685 -792.678)" fill="#f7e7c4"/>
      <g id="Group_332" data-name="Group 332" transform="translate(120.476 92.768)">
        <path id="Path_244" data-name="Path 244" d="M971.95,968.557c2.542,2.462,12.756,11.01,12.872,12.625s-6.513,5.569-20.175,2.649-39.568,22.1-42.7,22.986-18.768,3.582-18.625,2.277,21.734-31.337,21.734-31.337,34.052-7.863,34.992-8.348S971.95,968.557,971.95,968.557Z" transform="translate(-903.316 -954.45)" fill="#230d11"/>
        <path id="Path_245" data-name="Path 245" d="M995.866,1006.184c4.478,1.88,21.937,12.255,23.391,39.057s-14.818,39.285-25.029,40.426c-8.571.958-18.609-.656-27.8-15.029s-8.244-26.012-8.463-31.4c-.364-8.974,3.547-25.519,13.9-29.971S988.5,1003.093,995.866,1006.184Z" transform="translate(-941.61 -979.73)" fill="#0b0b0c"/>
        <path id="Path_246" data-name="Path 246" d="M987.83,1092.247c5.551-.135,21.481-7.1,19.54-35.541s-17.682-36.126-26.2-35.516c-5.262.377-22.1,7.519-20.476,34.123S978.012,1092.486,987.83,1092.247Z" transform="translate(-943.464 -991.326)" fill="#f7e7c4"/>
        <g id="Group_329" data-name="Group 329" transform="translate(17.121 29.832)">
          <g id="Group_328" data-name="Group 328" clip-path="url(#clip-path-6)">
            <path id="Path_247" data-name="Path 247" d="M985.558,960.446a21.089,21.089,0,0,0-9.554.683c-5.985,1.817-15.731,4.644-20.8,4.921s-22.905.085-29.255,5.073-12.133,17.51-21.895,17.234c1.067-10.375,4.636-28.583,8.453-33.588s11.48-17.8,27.577-19.786S980.36,938.365,985.558,960.446Z" transform="translate(-920.953 -960.478)" fill="#ddc79f"/>
          </g>
        </g>
        <path id="Path_249" data-name="Path 249" d="M1019.941,1077.668c.541,7.569-.043,26.631-13.428,27.588s-19.775-15.75-20.633-25.152,1.042-25.589,13.961-26.606S1019.354,1069.452,1019.941,1077.668Z" transform="translate(-961.073 -1013.968)" fill="#230d11"/>
        <path id="Path_250" data-name="Path 250" d="M1039.524,1093.6c.392,3.127.872,18.679-9.006,19.942-10.974,1.4-13.8-12.014-14.307-15.12-.825-5.044-1.835-21.765,9.255-22.372S1039.107,1090.28,1039.524,1093.6Z" transform="translate(-982.132 -1029.797)" fill="#d0cfcd"/>
        <path id="Path_251" data-name="Path 251" d="M1019.081,1091.34c2.464-.425,11.217,1.411,12.08,13.479s-6.709,14.807-9.259,14.989c-3.642.26-9.392-2.3-10.448-14.468S1016.331,1091.815,1019.081,1091.34Z" transform="translate(-979.038 -1040.489)" fill="#f0f0f0"/>
        <path id="Path_252" data-name="Path 252" d="M1033.641,1129.884c.237,2.9-.756,4.788-2.443,4.763-2.036-.03-2.655-2.218-2.8-4.122s.408-4.7,2.24-4.838C1032.4,1125.559,1033.449,1127.527,1033.641,1129.884Z" transform="translate(-990.99 -1064.602)" fill="#5e513d"/>
        <path id="Path_253" data-name="Path 253" d="M1032.469,1131.09c.365,2.2-.246,4.34-1.908,4.459-1.592.114-2.083-1.875-2.219-3.781-.164-2.288.377-3.977,1.619-4.063C1031.3,1127.613,1032.143,1129.127,1032.469,1131.09Z" transform="translate(-990.945 -1066.018)" fill="#7e7160"/>
        <path id="Path_254" data-name="Path 254" d="M984.824,950.183a21.09,21.09,0,0,0-9.554.683c-5.985,1.817-15.731,4.644-20.8,4.921s-22.905.085-29.255,5.073-12.133,17.51-21.9,17.234c1.067-10.375,4.636-28.583,8.453-33.588s11.481-17.8,27.577-19.786S979.626,928.1,984.824,950.183Z" transform="translate(-903.318 -923.451)" fill="#ffc21b"/>
        <g id="Group_331" data-name="Group 331" transform="translate(0.001 0.887)">
          <g id="Group_330" data-name="Group 330" clip-path="url(#clip-path-7)">
            <path id="Path_255" data-name="Path 255" d="M934.572,981.528c6.01-8.328,5.021-13.189,1.418-17.789-2.886-3.685-16.187-11.894-36.148.982-4.549,2.935-4.965,9.624-7.264,14.526-2.667,5.687-5.209,11.613-5.524,17.886-.112,2.233.146,4.681,1.693,6.3,1.951,2.036,5.17,2.014,7.972,1.7a93.78,93.78,0,0,0,30.237-9.172c3.245-1.576,25.735-13.142,24.2-16.2C949.783,977.024,933.2,983.426,934.572,981.528Z" transform="translate(-891.9 -947.762)" fill="#be911b" opacity="0.25"/>
          </g>
        </g>
        <path id="Path_257" data-name="Path 257" d="M1064.91,930.967c1.646-.293-1.792-6.342-4.23-7.909-3.015-1.937-7.613-2.168-17.553-.9C1054.365,924.067,1062.3,931.433,1064.91,930.967Z" transform="translate(-1001.33 -921.37)" fill="#f15d12"/>
      </g>
      <path id="Path_258" data-name="Path 258" d="M940.93,715.68c2.874,2.174,15.532,42.032,17.243,44.554.856,1.261,3.431,4.3,4.436,7.877s.437,7.709-4.058,9.075c-10.316,3.133-14.866-5.478-15.545-9.79-.5-3.166-9.641-50.479-9.137-51.21S939.753,714.79,940.93,715.68Z" transform="translate(-804.244 -684.104)" fill="#f05c12"/>
      <g id="Group_333" data-name="Group 333" transform="translate(145.409 78.651)">
        <path id="Path_259" data-name="Path 259" d="M989.606,874.227c3.2-.575,7.043,2.039,7.859,5.911.969,4.6-1.241,5.623-3.094,5.77-2.643.208-6.552-1.111-7.5-6.245S989.606,874.227,989.606,874.227Z" transform="translate(-986.718 -874.148)" fill="#7e7160"/>
        <line id="Line_30" data-name="Line 30" x1="4.615" y2="0.33" transform="translate(1.698 1.673)" fill="none" stroke="#d8ecd8" stroke-linecap="round" stroke-miterlimit="10" stroke-width="1"/>
        <line id="Line_31" data-name="Line 31" x1="6.277" y2="0.449" transform="translate(1.812 3.144)" fill="none" stroke="#d8ecd8" stroke-linecap="round" stroke-miterlimit="10" stroke-width="1"/>
        <line id="Line_32" data-name="Line 32" x1="7.101" y2="0.601" transform="translate(1.91 4.356)" fill="none" stroke="#d8ecd8" stroke-linecap="round" stroke-miterlimit="10" stroke-width="1"/>
        <line id="Line_33" data-name="Line 33" x1="8.215" y2="0.588" transform="translate(1.625 5.579)" fill="none" stroke="#d8ecd8" stroke-linecap="round" stroke-miterlimit="10" stroke-width="1"/>
        <line id="Line_34" data-name="Line 34" x1="7.846" y2="0.561" transform="translate(2.101 7.072)" fill="none" stroke="#d8ecd8" stroke-linecap="round" stroke-miterlimit="10" stroke-width="1"/>
        <line id="Line_35" data-name="Line 35" x1="6.732" y2="0.574" transform="translate(3.314 8.457)" fill="none" stroke="#d8ecd8" stroke-linecap="round" stroke-miterlimit="10" stroke-width="1"/>
        <line id="Line_36" data-name="Line 36" x1="4.8" y2="0.343" transform="translate(4.594 9.71)" fill="none" stroke="#d8ecd8" stroke-linecap="round" stroke-miterlimit="10" stroke-width="1"/>
      </g>
      <path id="Path_260" data-name="Path 260" d="M576.9,771.621c-.11,1.027.067,2.962,1.973,2.921s21.1.622,26.089.266,28.018-1.314,33-1.709c2.4-.194,7.68-.271,8.682-1.829s-.446-14.876-1.149-16.062a2.212,2.212,0,0,0-.957-.688c-4.088.827-11.219,1.225-14.093,1.67-4.4.688-34.813,3.6-40.3,3.44-4.82-.145-11.92-3.133-14.7-5.6C575.218,757.084,577,770.69,576.9,771.621Z" transform="translate(-552.976 -711.288)" fill="#0b0b0c"/>
      <path id="Path_261" data-name="Path 261" d="M575.236,742.192c2.776,2.468,9.876,5.456,14.7,5.6,5.489.164,35.9-2.751,40.3-3.439,2.874-.445,10-.844,14.093-1.67-2.944-1.382-11.634-2.72-17.866-3.07-7.266-.4-25.66,1.835-27.367,1.312s-6.668-2.4-9.437-2.2-13.47,2.355-14.268,2.874C575.309,741.647,575.262,741.856,575.236,742.192Z" transform="translate(-552.84 -700.548)" fill="#0b0b0c"/>
      <g id="Group_335" data-name="Group 335" transform="translate(22.474 39.256)">
        <g id="Group_334" data-name="Group 334" clip-path="url(#clip-path-8)">
          <path id="Path_262" data-name="Path 262" d="M644.59,754.519c-4.088.827-11.219,1.225-14.093,1.67-4.4.688-34.813,3.6-40.3,3.44-4.82-.145-11.92-3.133-14.7-5.6" transform="translate(-575.499 -750.544)" fill="none" stroke="#d8ecd8" stroke-miterlimit="10" stroke-width="1"/>
        </g>
      </g>
    </g>
    <g id="Group_339" data-name="Group 339" transform="translate(240.143 169.769)">
      <path id="Path_265" data-name="Path 265" d="M579.368,773.046l1.926,2.928s.283.636-2.274-.41.349-2.518.349-2.518Z" transform="translate(-486.101 -592.695)" fill="#a00025" fill-rule="evenodd"/>
      <path id="Path_266" data-name="Path 266" d="M431.206,766.553l-2.53,1.869s-.376.572,5.126.378-.31-3.332-2.6-2.247Z" transform="translate(-381.437 -587.983)" fill="#a00025" fill-rule="evenodd"/>
      <path id="Path_267" data-name="Path 267" d="M309.8,548.058l-15.731,24.487,15.5,1.085,12.094-19.578L309.8,548.058Z" transform="translate(-287.074 -434.968)" fill="#f8a177" fill-rule="evenodd"/>
      <path id="Path_268" data-name="Path 268" d="M295.73,571.941l-1.663,2.588,15.5,1.085,12.094-19.578-10.188-5.147-2.164,1.767,5.9,5.561L306.3,571.467l-10.569.474Z" transform="translate(-287.074 -436.951)" fill="#eb8963" fill-rule="evenodd"/>
      <path id="Path_269" data-name="Path 269" d="M352.237,746.948l-.056,2.6s-5.378,51.98-6.558,53.458-1.793.77-1.216,2.458,1.111,3.227.07,3.533,1.653,1.776,1.032,2.685-3.144,2.217-2.2,3.232,1.268,1.566-.145,1.981-.271,6.219-2.659,16.775-9.215,29.2-10.47,30.723-2.756-1.137-1.6,4.435c0,0-3.965,2.483-3.839,3.794a11.963,11.963,0,0,0,1.259,3.382s22.692,6.073,25.476,5.884c0,0,2.735-1.509,2.647-2.434a11.582,11.582,0,0,0-1.13-2.85s3.2-1.553,2.679-2.9a7.277,7.277,0,0,1-.734-3.588c.091-1.488.067-10.7,1.476-26.781s5-21.987,4.65-22.368-1.43-1.841-.428-1.732,2.095-.293,1.343-1.2-1.3-1.959.074-2.768,1.531-1.662.766-2.891,8.875-37.665,13.3-48.173c0,0,2.795-.661,2.991.009s1.564,34.433,1.511,35.9-.94,2.3-.013,2.427,2.58,1.907,1.067,3.079-1.876,1.036-1.251,2.064,1.832,1.561.512,2.838-2.532,1.552-1.867,2.165.944,2.388.267,4.2,2.024,14.024,2.3,17.172.9,23.017-1.367,28.815-3.008,6.852-.536,8.9c0,0-2.868,3.6-2.386,5.017a9.5,9.5,0,0,0,1.894,2.873s-3,3.051-1.747,4.579c0,0-1.4,1.957-.907,3.064a3.312,3.312,0,0,0,1.758,1.357s1.884-.877,2.891-.557l24.86-10.706s-.625-3.517-.037-4.577-3.333-1.849-2.758-2.6.5-.909-.23-1.871.979-1.121.863-2.057-1.486-1.538-1.473-3.631-6.118-26.384-3.747-47.435a2.013,2.013,0,0,0-.54-1.7c-.724-.676.919-1.683,1.343-1.889s1.01-1.509.256-5.446c-3.662-19.122-1-47.259-.235-67.263,0,0-32.306-8.381-47.155,8.023Z" transform="translate(-308.475 -567.273)" fill="#155ba1" fill-rule="evenodd"/>
      <path id="Path_270" data-name="Path 270" d="M324.139,927.836a4.289,4.289,0,0,0,1.762,3.711,10.051,10.051,0,0,0-2.085,4.676s22.691,6.073,25.476,5.883c0,0,2.736-1.509,2.647-2.434a11.6,11.6,0,0,0-1.13-2.85s2.168-1.123,2.624-2.665c.274-.925-1.387-2.147-.859-2.99.335-.535,1.131-.648,1.5-1,.819-.764,1.137-1.465.9-1.767-.886-1.144-.825-2.1-.734-3.588s.067-10.7,1.476-26.781,5-21.987,4.65-22.368-1.43-1.841-.428-1.732,2.094-.293,1.343-1.2-1.3-1.959.074-2.768,1.531-1.662.766-2.891,8.875-37.665,13.3-48.173c0,0,2.795-.661,2.991.009,2.47-.315,8.286-2.51,6.078-3.153s-13.955.065-16.473-.81,2.033,2.794,1.67,4.032S355,868.449,352.568,867.872s-8.781-4.041-5.055-1.26,10.7,6.709,6.734,6.42-8.527-1.531-4.941-.324,3.551,2.187,3.035,4.277-3.386,28.571-6.88,42.452c0,0-9.934-1.3-7.743.432s10.343,3.133,7.872,4.149-14.8-1.73-21.45,3.818Z" transform="translate(-307.929 -621.975)" fill="#0b4f8a" fill-rule="evenodd"/>
      <path id="Path_271" data-name="Path 271" d="M350.993,1199.941l-.367-1.407s-6.755-3.047-7.078-2.354,7.445,3.762,7.445,3.762Z" transform="translate(-321.755 -889.259)" fill="#003b6d" fill-rule="evenodd"/>
      <path id="Path_272" data-name="Path 272" d="M416.8,746.948l-.056,2.6-.057.548s21.374-9.881,39.775-6.085c0,0,.951,54.321,1.86,59.062s.471,8.746-.762,8.947,3.694,38.3,3.447,51.322c0,0,.833,2.284-1.52,1.1s-4.785-2.376-3.515-1.236,8.981,5.814,7.806,6.074-14.268-.068-11.689,1.283,13.586,1.512,11.843,2.368-11.1,2.178-22.8,12.758A2.2,2.2,0,0,0,441,887.3a3.313,3.313,0,0,0,1.758,1.358h0a8.824,8.824,0,0,1,1.124-.415,7.236,7.236,0,0,0,.587-.464l.2.288a2.277,2.277,0,0,1,.984.034l24.86-10.706s-.625-3.517-.037-4.577-3.333-1.849-2.758-2.6.5-.909-.23-1.871.979-1.121.863-2.057-1.485-1.538-1.473-3.631-6.118-26.384-3.747-47.435a2.013,2.013,0,0,0-.54-1.7c-.723-.676.919-1.683,1.343-1.889s1.011-1.509.256-5.446c-3.662-19.122-1-47.259-.235-67.263,0,0-32.306-8.381-47.155,8.023Z" transform="translate(-373.033 -567.273)" fill="#0b4f8a" fill-rule="evenodd"/>
      <path id="Path_273" data-name="Path 273" d="M545.46,1203.254l-.422-.814s11.427-6.528,13.3-6.469-12.877,7.283-12.877,7.283Z" transform="translate(-463.016 -889.185)" fill="#003b6d" fill-rule="evenodd"/>
      <path id="Path_274" data-name="Path 274" d="M596.057,397.6l1.914-.082s8.676,4.5,14.255,7.547c0,0,1.085-2.3,8.265-7.31s25.21-21.8,26.863-23.97.206-4.649,7.853-10.848a10.144,10.144,0,0,0,2.738-3.823c.672-2.066-.051-5.321.981-5.889s4.082-.569,4.547,5.476c0,0-.052,2.428-.775,3.048s-3.41,4.029-3.41,4.6,3.409,3,3,8.473-4.908,10.073-4.908,10.073a25.606,25.606,0,0,1-5.941-1.963s-14.516,15.395-20.3,22.111-10.438,12.071-11.52,12.553-14.939-2.128-24.337-7.211.78-12.781.78-12.781Z" transform="translate(-495.444 -298.215)" fill="#f8a177" fill-rule="evenodd"/>
      <path id="Path_275" data-name="Path 275" d="M694.825,396.936c7.995-6.116,23.579-20.671,25.11-22.681,1.653-2.169.206-4.649,7.852-10.848a10.144,10.144,0,0,0,2.738-3.823c.672-2.066-.051-5.321.982-5.889l.069-.035a1.01,1.01,0,0,1,.458.63c.736,2.17-.194,7.284-1.55,8.679s-8.137,6.626-8.756,11.74-1.395,1.085-1.395,1.085-14.978,14.152-25.5,21.141l0,0Z" transform="translate(-568.024 -298.684)" fill="#f1945e" fill-rule="evenodd"/>
      <path id="Path_276" data-name="Path 276" d="M376.437,438.84l-3.721.619a28.065,28.065,0,0,0-18.7,9.3c-8.162,9.092-15.7,23.867-15.7,23.867l15.085,10.8,5.269-8.007a56.909,56.909,0,0,0,5.786,20.148c6.561,13.5-.152,29.137-5.1,43.24,0,0,8.369-2.738,24.694-2.325s26.657,2.789,29.24,5.166c-7.443-23.367-9.914-49.166-8.8-73.771l13.019,4.65,3.2-15.292c-15.232-7.5-26.2-19.328-44.274-18.391Z" transform="translate(-318.091 -358.364)" fill="#b20e1e" fill-rule="evenodd"/>
      <path id="Path_277" data-name="Path 277" d="M372.33,551.1l4.915,3.518,4.381-6.657-.081-.547s2.3-4.715,6.535-5.38c-7.058-5.488-12.219,3.7-15.749,9.066Z" transform="translate(-341.94 -429.563)" fill="#881017" fill-rule="evenodd"/>
      <path id="Path_278" data-name="Path 278" d="M484.962,539.622c4.941.942,8.166,2.13,9.457,3.318-7.443-23.367-9.914-49.166-8.8-73.771l13.019,4.65,3.2-15.291c-12.726-6.262-22.478-15.55-35.881-17.891a3.392,3.392,0,0,0-2.135,3.117l-9.784-2.43s3.275,9.869,13.194,12.039c8.389-2.725,11.91,1.642,13.157,7.7,1.751,8.506,1.91,21.647,3.144,32.436,1.986,17.367-1.529,34.89,1.422,46.123Z" transform="translate(-399.226 -359.659)" fill="#a70c1b" fill-rule="evenodd"/>
      <path id="Path_279" data-name="Path 279" d="M559.645,520.21l1.353.483a31.73,31.73,0,0,1-1.3-7.25c-.019,2.231-.1,4.545-.055,6.767Z" transform="translate(-473.248 -410.701)" fill="#8b0027" fill-rule="evenodd"/>
      <path id="Path_280" data-name="Path 280" d="M452.5,377.788l-1.818,4.157a73.965,73.965,0,0,1,.811,14.75s1.137,4.649,8.576,9.919c4.672,3.309,6.165,1.525,6.63-.927.671-3.541.218-10.555.246-14.319,0,0-14.805-12.755-14.444-13.581Z" transform="translate(-396.867 -315.6)" fill="#f8a177" fill-rule="evenodd"/>
      <path id="Path_281" data-name="Path 281" d="M347.721,549.8l12.142,8.151c2.588-4.262,5.1-11.349,10.964-11.951-4.449,1.483-8.395,9.361-10.7,13.218l-12.4-9.417Z" transform="translate(-324.688 -433.524)" fill="#8b0027"/>
      <path id="Path_282" data-name="Path 282" d="M804.874,403.534c-3.43-4.1,1.327-5.118,4.494-4.34,3.151.775,7.388,2.479,4.546,6.509,1.923,1.789,1.559,5.1-1.085,5.528,1.6,2.057-.826,4.506-3.022,4.184a1.84,1.84,0,0,1-.052,2.2c-2.777,3.787-14.485-2.8-8.162-4.314a2.916,2.916,0,0,1,1.937-4.6c-1.018-1.913-.815-4.11,1.343-5.166Z" transform="translate(-641.578 -330.437)" fill="#f8a177" fill-rule="evenodd"/>
      <path id="Path_283" data-name="Path 283" d="M804.874,403.534c-3.1-3.716.5-4.9,3.56-4.512l-.433.42s-2.843-.128-1.79,3.886l.027.371s-2.034,1.143-.988,4.94c0,0-2.538,2.276-1.685,4.737,0,0-2.722,1.715-1.56,3.894.006.011.01.023.016.034-2.325-1.358-3.483-3.275-.427-4.007a2.916,2.916,0,0,1,1.937-4.6c-1.018-1.913-.815-4.11,1.343-5.166Z" transform="translate(-641.579 -330.437)" fill="#f1945e" fill-rule="evenodd"/>
      <path id="Path_284" data-name="Path 284" d="M812.065,400.537c-2.746-1.384-11.815-2.329-7.856,2.578a25.46,25.46,0,0,1,6.217,1.921c-1.73-.56-6.007-1.944-7.36-.123a3.121,3.121,0,0,0-.2,3.345,13.9,13.9,0,0,1,8.493,2.816,16.111,16.111,0,0,0-7.954-1.957c-2.135-.013-3.546,1.818-2.466,3.733a13.041,13.041,0,0,1,7.224,2.272c-1.466-.758-6.593-2.169-8.321-1.13-.625.376-.708,1.11-.035,1.794a7.827,7.827,0,0,0,1.875,1.331c1.691.9,6.9,2,7.562-.447-.345,2.993-5.5,2.286-7.874,1.03a8.719,8.719,0,0,1-2.092-1.493c-1.436-1.461-.809-2.806.747-3.232a3.3,3.3,0,0,1,1.985-4.487,3.868,3.868,0,0,1,1.369-5.009c-3.718-4.731,4.009-5.838,8.682-2.943Z" transform="translate(-640.688 -330.434)" fill="#b13628"/>
      <g id="Group_337" data-name="Group 337" transform="translate(0 136.428)">
        <path id="Path_285" data-name="Path 285" d="M263.8,659.547l1.373.7-.374,21.717s-28.754.906-35.739,1.6l-.249-22Z" transform="translate(-228.813 -649.555)" fill="#489224" fill-rule="evenodd"/>
        <path id="Path_286" data-name="Path 286" d="M255.866,626.122l-26.191.906-1.984,11.153,36.7-1.7s-6.369-5.338-8.523-10.355Z" transform="translate(-227.69 -626.122)" fill="#bcb214" fill-rule="evenodd"/>
      </g>
      <path id="Path_287" data-name="Path 287" d="M255.283,731.755s-.736-2.415-2.674-2.684-2.867,3.22-2.557,6.373,3.8,5.031,5.657,1.275c0,0,1.154,1.662,2.52,1.509.812-.091,1.845-.921,2.556-2.516,2.088,5.094,4.276,3.241,6.044-.8.759,4.4,3.992,4.107,4.417,1.207.815-5.562-3.366-6.752-4.339-3.623,0,0-1.2-2.482-3.371-2.549s-2.832,2.793-2.832,2.793c-.459-3.574-4-3.678-5.421-.982Z" transform="translate(-239.232 -565.975)" fill="#eb7c48" fill-rule="evenodd"/>
      <path id="Path_288" data-name="Path 288" d="M527.489,1199.809s-18.662,7.88-23.583,13.452c15.289-.014,24.547,1.693,39.334,4.519,2.616.5,10.425,1.067,11.138.709s.289-6.736-.786-7.014a59.6,59.6,0,0,1-7.822-2.183c-6.045-2.19-14.086-8.7-18.283-9.482Z" transform="translate(-434.181 -891.876)" fill="#502a2b" fill-rule="evenodd"/>
      <path id="Path_289" data-name="Path 289" d="M504.633,1224.225c-.267.253-.511.5-.727.748,15.289-.014,24.547,1.693,39.334,4.519a72.9,72.9,0,0,0,7.869.768c-.042-1.648-.174-3.768-.571-4.2,0,0-10.3-2.867-12.391-3.814-6.436-2.923-12.485-6.217-15.28-5.669-3.906.766-18.14,7.6-18.234,7.649Z" transform="translate(-434.181 -903.588)" fill="#603536" fill-rule="evenodd"/>
      <path id="Path_290" data-name="Path 290" d="M302.267,1199.1s-5.759,1.643-10.742,8.115a69.108,69.108,0,0,0-6.9,1.13c-1.127.419-3.988,6.3-3.833,7.919s22.565-.921,23.336-1,3.782-2,6.621-2.433,10.279.888,10.513.087a17.439,17.439,0,0,0-.009-3.566s-5.659-6.01-18.989-10.257Z" transform="translate(-277.765 -891.382)" fill="#603536" fill-rule="evenodd"/>
      <path id="Path_291" data-name="Path 291" d="M320.951,1199.1s-.284.081-.778.277a11.384,11.384,0,0,1,5.391,3.782,30.258,30.258,0,0,1-5.343,4.8c-2.934,2.177-5.994,2.085-8.3,2.051-3.077.855-4.132,4.084-4.477,6.628,6.577-.385,14.91-1.327,15.375-1.371.771-.074,3.782-2,6.621-2.433s10.279.888,10.513.087a17.443,17.443,0,0,0-.009-3.566s-5.659-6.01-18.989-10.257Z" transform="translate(-296.449 -891.382)" fill="#502a2b" fill-rule="evenodd"/>
      <path id="Path_292" data-name="Path 292" d="M298.341,1211.893a26.1,26.1,0,0,0-4.606,4.724s-6.183.867-7,1.295-3.313,6.04-3.415,6.594,1.706.342,1.706.342,2.047-5.84,2.688-6.058,6.666-1.107,6.648-1.3a14.18,14.18,0,0,1,3.978-5.6Z" transform="translate(-279.537 -900.347)" fill="#6a403d" fill-rule="evenodd"/>
      <path id="Path_293" data-name="Path 293" d="M328.834,1191.364c-.007.005-2.328,2.773-3.955.718-1.532-1.935-1.1-4.32-.141-5.133-.947,1.277-1.062,5.875,4.1,4.415Z" transform="translate(-307.967 -882.86)" fill="#003b6d"/>
      <g id="Group_338" data-name="Group 338" transform="translate(36.688 0)">
        <path id="Path_294" data-name="Path 294" d="M545.886,308.048s.9-3.565,3.332-3.487,2.532,7.827-2.17,10.2-1.163-6.716-1.163-6.716Z" transform="translate(-499.403 -264.264)" fill="#d45c30" fill-rule="evenodd"/>
        <path id="Path_295" data-name="Path 295" d="M407.615,204.462l-2.219.844-.77-.332s-5.9-19.265,7.226-28.357,24.383-6.509,24.383-6.509,19.426,1.91,15.551,24.977c0,0-28.052,2.919-44.17,9.377Z" transform="translate(-400.342 -169.769)" fill="#d8a51a" fill-rule="evenodd"/>
        <path id="Path_296" data-name="Path 296" d="M455.468,172.674c9.863-4.278,17.336-2.565,17.336-2.565s18.208,1.791,15.851,22.838a51.171,51.171,0,0,1-5.7-.39s1.86-13.122-9.4-18.184c-10.028-4.508-16.737-2.247-18.087-1.7Z" transform="translate(-436.911 -169.77)" fill="#ba002d" fill-rule="evenodd"/>
        <path id="Path_297" data-name="Path 297" d="M454.756,170.343a26.163,26.163,0,0,1,9.842-.234s19.426,1.91,15.551,24.977a262.993,262.993,0,0,0-32.269,5.633,3.073,3.073,0,0,1-2.181-1.729c-3.224-9.524-3.741-26.268,9.057-28.647Z" transform="translate(-428.705 -169.77)" fill="#d8d03d" fill-rule="evenodd"/>
        <path id="Path_298" data-name="Path 298" d="M470.886,170.343a26.163,26.163,0,0,1,9.842-.234s18.208,1.791,15.851,22.838a51.169,51.169,0,0,1-5.7-.39s1.86-13.122-9.4-18.184c-6.464-2.906-11.548-3-14.708-2.551a12.945,12.945,0,0,1,4.114-1.478Z" transform="translate(-444.836 -169.77)" fill="#fff" fill-rule="evenodd" opacity="0.2"/>
        <path id="Path_299" data-name="Path 299" d="M409.6,286.056l-1.11.422-.77-.332.666-.591,1.214.5Z" transform="translate(-403.439 -250.941)" fill="#9f0030" fill-rule="evenodd"/>
        <path id="Path_300" data-name="Path 300" d="M412.842,246.134l-2.892-1.648c8.039-8.911,25.472-16.235,40.6-17.29,5.371-.374,15.933-.156,19.826,4.635a5.465,5.465,0,0,1,1.327,3.34c.062,3.271-2.557,4.453-5.969,4.706-4.921.366-11.493-1.2-14.048-1.2-3.1,0-26.553-.918-38.849,7.453Z" transform="translate(-405.001 -209.943)" fill="#fff" fill-rule="evenodd" opacity="0.2"/>
        <path id="Path_301" data-name="Path 301" d="M412.842,248.075,409.95,246.5c8.039-8.524,25.472-15.53,40.6-16.539,5.371-.358,15.933-.149,19.826,4.434a5.108,5.108,0,0,1,1.327,3.195c.062,3.129-2.557,4.259-5.969,4.5-4.921.35-11.493-1.145-14.048-1.145-3.1,0-26.553-.878-38.849,7.129Z" transform="translate(-405.001 -211.883)" fill="#6e2708" fill-rule="evenodd"/>
        <path id="Path_302" data-name="Path 302" d="M559.735,254.694a26.88,26.88,0,0,0-7.717-1.983c-5.023-.619,1.011,1.21,1.011,1.21a27.885,27.885,0,0,1,6.706.773Z" transform="translate(-503.197 -227.826)" fill="#5f0013" fill-rule="evenodd"/>
        <path id="Path_303" data-name="Path 303" d="M409.95,261.347c2.044,18.505,7.266,38.356,28.1,42.464,0,0,11.778,2.376,16.738-3.513,5.277-6.267,3.476-16.108-.93-22.317,0,0-1.136-15.188,2.583-25.933,0,0-25.83-5.579-46.494,9.3Z" transform="translate(-405.001 -226.732)" fill="#f8a177" fill-rule="evenodd"/>
        <path id="Path_304" data-name="Path 304" d="M418.093,289.962a29,29,0,0,0,19.96,13.85s11.778,2.376,16.738-3.513c5.277-6.267,3.476-16.108-.93-22.317,0,0-1.136-15.188,2.583-25.933,0,0-25.83-5.579-46.494,9.3,0,0,16.9-11.442,41.363-3.849a9.993,9.993,0,0,0-7.386,7.284c-1.911,6.406,1.653,7.9,1.653,7.9s3.668.724,4.83,3.332c0,0-.361,1.886-8.111,2.66s-6.542-2-6.542-2-2.205,1.146-.087,3.652c.8,2.676,7.809,4.533,15.072,2.531l.969,1.421-1.007.594c12.384,14.757-18.636,25.213-32.612,5.083Z" transform="translate(-405.001 -226.732)" fill="#eb8963" fill-rule="evenodd"/>
        <path id="Path_305" data-name="Path 305" d="M479.3,361.091a21.3,21.3,0,0,0,10.425-.6,4.572,4.572,0,0,1-2.821,3.907c-2.344,1.21-5.359.845-8.3-.372a22.82,22.82,0,0,1-8.87-6.71l-.617-.805.784.645a20.71,20.71,0,0,0,9.394,3.935Z" transform="translate(-446.485 -300.684)" fill="#882e15" fill-rule="evenodd"/>
        <path id="Path_306" data-name="Path 306" d="M479.3,361.091a23.107,23.107,0,0,0,7.4.134c-.283.677-.54,1.321-.633,1.643a13.524,13.524,0,0,1-5.268.166,11.5,11.5,0,0,0,5.243.132c.047.306.178.92.326,1.475-2.259.907-5.044.511-7.763-.615a22.82,22.82,0,0,1-8.87-6.71l-.617-.805.784.645a20.71,20.71,0,0,0,9.394,3.935Z" transform="translate(-446.485 -300.684)" fill="#c4e2c9" fill-rule="evenodd"/>
        <path id="Path_307" data-name="Path 307" d="M479.3,361.091a23.107,23.107,0,0,0,7.4.134c-.119.285-.233.564-.333.816-6.364,1.305-12.983-2.029-12.983-2.029l4.031,3.344-.016.122a22.816,22.816,0,0,1-7.665-6.162l-.617-.805.784.645a20.71,20.71,0,0,0,9.394,3.935Z" transform="translate(-446.485 -300.684)" fill="#8ab19f" fill-rule="evenodd"/>
        <path id="Path_308" data-name="Path 308" d="M409.95,272.962a106.145,106.145,0,0,0,2.615,15.019,8.159,8.159,0,0,1,1.311-.914A13,13,0,0,0,412.7,288.5q.208.774.433,1.54a23.754,23.754,0,0,1,8.2-5.337,15.1,15.1,0,0,0-7.592,3.606s1.245-2.678,6.512-4.052a6.767,6.767,0,0,1-2.489-1.919,15.6,15.6,0,0,0-3.506,3.646,23.3,23.3,0,0,1,3.19-4.084,6.941,6.941,0,0,1-1.047-4.156,25.613,25.613,0,0,1,3.021-10.15,50.955,50.955,0,0,0-9.477,5.37Z" transform="translate(-405.001 -238.347)" fill="#443632" fill-rule="evenodd"/>
        <path id="Path_309" data-name="Path 309" d="M418.745,268.986c.241-.524.474-.994.682-1.394a50.955,50.955,0,0,0-9.477,5.37,37.935,37.935,0,0,1,8.8-3.976Z" transform="translate(-405.001 -238.347)" fill="#2a2523" fill-rule="evenodd"/>
        <path id="Path_310" data-name="Path 310" d="M397.085,313.205c-4.1-.139-4.445,5.667-2.676,8.414,2.207,3.426,7.206,3.558,7.532-1.9.162-2.711-1.7-6.4-4.856-6.509Z" transform="translate(-393.396 -270.323)" fill="#f1945e" fill-rule="evenodd"/>
        <path id="Path_311" data-name="Path 311" d="M403.641,322.229l.093.875c-4.183-1.255-2.3,1.726-2,1.854-1.67-.662-2.911-3.727.61-3.406a4.371,4.371,0,0,0-1.751-2.563c-1.829.488-1.585,2.643-1.585,2.643a3.122,3.122,0,0,1,.973-2.915c-.688-.178-1.377.088-1.855,1.077.778-3.982,5.006-2.386,5.518,2.435Z" transform="translate(-396.71 -273.364)" fill="#b13628"/>
        <path id="Path_312" data-name="Path 312" d="M501.275,288.3c-.638,3.182-1.285,6.961,1.073,10.221,2.418.661,4.877,2.234,5.593,3.926,2.428,5.742-16.391,7.886-17.276,2.663a2.12,2.12,0,0,1,1.851-2.412c-3.484,3.586,3,4,4.926,3.917a23.37,23.37,0,0,0,7.877-1.541c3.753-1.876.372-4.81-2.4-5.842a11.144,11.144,0,0,0,1.91,1.694c-6.84-1.936-6.17-9.791-3.555-12.627Z" transform="translate(-461.566 -252.865)" fill="#b13628"/>
        <path id="Path_313" data-name="Path 313" d="M475.255,308.006l.283.608s-4.034,1.989-6.182-1.337a6,6,0,0,1-.039-1.692c.137-.56,1.791,2.977,5.938,2.422Z" transform="translate(-446.584 -264.939)" fill="#fcaf82" fill-rule="evenodd"/>
        <path id="Path_314" data-name="Path 314" d="M477.83,297.329s-.005.053-.025.146c-.811,3.908-7.653,4.634-8.571.06.7-4.919,6.114-5.68,8.6-.207Z" transform="translate(-446.563 -256.529)" fill="#c4e2c9" fill-rule="evenodd"/>
        <path id="Path_315" data-name="Path 315" d="M471.309,307.217c.569-3.067,2.627-.02,0,0Z" transform="translate(-448.017 -265.168)" fill="#edf6ee" fill-rule="evenodd"/>
        <path id="Path_316" data-name="Path 316" d="M477.83,297.329s-.005.053-.025.146a3.55,3.55,0,0,1-.241.74,4.294,4.294,0,0,0-8.256-.373c-.027-.1-.053-.2-.074-.307.7-4.919,6.114-5.68,8.6-.207Z" transform="translate(-446.563 -256.529)" fill="#8ab19f" fill-rule="evenodd"/>
        <path id="Path_317" data-name="Path 317" d="M473.621,294.946a2.536,2.536,0,1,1-2.467,2.535,2.5,2.5,0,0,1,2.467-2.535Z" transform="translate(-447.908 -257.524)" fill="#706d5b" fill-rule="evenodd"/>
        <path id="Path_318" data-name="Path 318" d="M472.755,307.064a2.531,2.531,0,0,1-.567-.709c.623-1.272,1.651.207.567.709Z" transform="translate(-448.633 -265.169)" fill="#918e7d" fill-rule="evenodd"/>
        <path id="Path_319" data-name="Path 319" d="M473.621,294.946a2.443,2.443,0,0,1,2,1.046,4.284,4.284,0,0,0-4.445,1.8,2.6,2.6,0,0,1-.019-.31,2.5,2.5,0,0,1,2.467-2.535Z" transform="translate(-447.908 -257.524)" fill="#59584d" fill-rule="evenodd"/>
        <path id="Path_320" data-name="Path 320" d="M478.148,295.7c.549-.094,1.294-.052,1.333.859.065,1.565-1.473.875-1.477.873,1.357-.355,1.45-.865,1.032-1.005-.746-.249-1.135.46-1.6.751-.685-2.03-1.513-3.374-3.225-3.864a4,4,0,0,0-5.019,4.47c-1.361-5.4,6.154-8.79,8.959-2.084Z" transform="translate(-446.416 -255.442)" fill="#b13628"/>
        <path id="Path_321" data-name="Path 321" d="M537.389,305.285l-.469,1.127a6.654,6.654,0,0,0,5.062-.462,6.9,6.9,0,0,0,.076-1.059c-.032-.284-3.009,1.317-4.669.394Z" transform="translate(-494.013 -264.472)" fill="#fcaf82" fill-rule="evenodd"/>
        <path id="Path_322" data-name="Path 322" d="M530.408,296.614l.389.839s4.393,2.185,6.639-.812c0,0,.037-2.391-1.293-3.191s-4.352-1.55-5.734,3.164Z" transform="translate(-489.448 -256.059)" fill="#c4e2c9" fill-rule="evenodd"/>
        <path id="Path_323" data-name="Path 323" d="M532.869,304.474c.727-2.825,2.894-.181,0,0Z" transform="translate(-491.173 -263.295)" fill="#edf6ee" fill-rule="evenodd"/>
        <path id="Path_324" data-name="Path 324" d="M537.616,296.642s.037-2.391-1.293-3.191c-1.306-.786-4.243-1.522-5.657,2.915l.312,1.089c1.4-5.243,6.274-4.043,6.639-.812Z" transform="translate(-489.628 -256.059)" fill="#8ab19f" fill-rule="evenodd"/>
        <path id="Path_325" data-name="Path 325" d="M535.261,292.985a3.509,3.509,0,0,0-2.5,1.981c0,.023,0,.046,0,.07a2.047,2.047,0,1,0,2.5-2.051Z" transform="translate(-491.095 -256.149)" fill="#706d5b" fill-rule="evenodd"/>
        <path id="Path_326" data-name="Path 326" d="M534.3,303.513a2.059,2.059,0,0,0,.778.6c.68-.546-.131-1.42-.778-.6Z" transform="translate(-492.178 -263.296)" fill="#918e7d" fill-rule="evenodd"/>
        <path id="Path_327" data-name="Path 327" d="M535.261,292.985a3.509,3.509,0,0,0-2.5,1.981c0,.023,0,.046,0,.07a2.136,2.136,0,0,0,.257,1.02,3.356,3.356,0,0,1,3.576-2.048,2.057,2.057,0,0,0-1.33-1.023Z" transform="translate(-491.095 -256.149)" fill="#59584d" fill-rule="evenodd"/>
        <path id="Path_328" data-name="Path 328" d="M527.272,293.456c-.441-.06-1.04.03-1.07.944-.053,1.569,1.183.781,1.186.779-1.09-.269-1.164-.773-.828-.94.6-.3.912.388,1.287.649.549-2.073,1.094-3.643,2.589-4.326,1.99-.91,4.34,1.151,4.031,4.41,1.159-5.877-4.9-8.671-7.195-1.517Z" transform="translate(-486.498 -253.494)" fill="#b13628"/>
        <path id="Path_329" data-name="Path 329" d="M540.516,273.764c-1.071-2.192-2.269-3.409-4.224-2.109-.034-.305-.069-.517-.069-.517s-.036.231-.093.572c-.075.028-.151.06-.227.1a.733.733,0,0,0-.152.123c.06-.316-.033-.688.02-1.051,2.8-1.17,3.954.254,4.745,2.884Zm-4.934-1.656h0c-.1.106-.207.234-.327.376-.021-.535-.034-1.063-.042-1.429a3.38,3.38,0,0,1,.4-.111c0,.383-.01.8-.027,1.164Zm-.407.473h0c-.119.143-.246.3-.375.458a7.011,7.011,0,0,1,.032-1.826,3.6,3.6,0,0,1,.372-.153c0,.377-.01.932-.029,1.522Zm-.513.627h0l-.392.485c-.071-.488-.169-.9-.169-.9a12.108,12.108,0,0,1-.114,1.244c-.1.117-.187.227-.273.328.077-.721.2-1.755.4-2.724a4.2,4.2,0,0,1,.447-.294,9.125,9.125,0,0,0,.1,1.857Zm-1.042,1.27h0c-.255.3-.438.479-.476.44a3.32,3.32,0,0,1,.133-1.912,2.625,2.625,0,0,1,.526-1.1l.075-.069c-.109.8-.222,1.776-.257,2.637Z" transform="translate(-491.3 -240.362)" fill="#443632" fill-rule="evenodd"/>
        <path id="Path_330" data-name="Path 330" d="M459.376,276.961c1.138-2.023,2.853-3.867,4.256-4.1a5.363,5.363,0,0,1,3.088.472c.05-.336.1-.568.1-.568s.053.254.138.63q.168.047.338.107a1.083,1.083,0,0,1,.228.135c-.089-.347.048-.756-.029-1.156a7.164,7.164,0,0,0-3.75-.329c-1.641.394-3.631,3-4.373,4.813Zm8.4-3.134h0c.144.116.309.257.488.414.032-.588.051-1.169.063-1.571-.188-.048-.385-.09-.591-.122,0,.421.015.884.04,1.28Zm.609.52h0c.178.157.367.328.561.5a5.709,5.709,0,0,0-.048-2.009c-.175-.061-.361-.118-.556-.169,0,.415.015,1.025.043,1.674Zm.767.691h0l.585.533a9.35,9.35,0,0,1,.252-.986,9.881,9.881,0,0,0,.17,1.368c.143.128.28.25.407.36a24.358,24.358,0,0,0-.6-3A6.862,6.862,0,0,0,469.3,273a7.436,7.436,0,0,1-.144,2.043Zm1.556,1.4h0c.381.325.654.527.711.484.256-.191.139-1.219-.2-2.1a2.674,2.674,0,0,0-.786-1.207l-.111-.076a23.936,23.936,0,0,1,.384,2.9Z" transform="translate(-439.651 -241.453)" fill="#443632" fill-rule="evenodd"/>
        <path id="Path_331" data-name="Path 331" d="M476.342,298.935a1.343,1.343,0,1,1-1.306,1.343,1.325,1.325,0,0,1,1.306-1.343Z" transform="translate(-450.63 -260.32)" fill="#313133" fill-rule="evenodd"/>
        <path id="Path_332" data-name="Path 332" d="M477.473,301.872a1.156,1.156,0,0,1-.823.346,1.192,1.192,0,0,1-1.175-1.207,1.215,1.215,0,0,1,.561-1.03,1.221,1.221,0,0,0-.352.862,1.191,1.191,0,0,0,1.175,1.207,1.144,1.144,0,0,0,.613-.178Z" transform="translate(-450.937 -261.054)" fill="#464749" fill-rule="evenodd"/>
        <path id="Path_333" data-name="Path 333" d="M537.1,296.167a1.1,1.1,0,1,1-1.07,1.1,1.084,1.084,0,0,1,1.07-1.1Z" transform="translate(-493.386 -258.38)" fill="#313133" fill-rule="evenodd"/>
        <path id="Path_334" data-name="Path 334" d="M537.1,296.167a1.043,1.043,0,0,1,.492.123,3.311,3.311,0,0,0-1.561.97,1.084,1.084,0,0,1,1.069-1.093Z" transform="translate(-493.387 -258.38)" fill="#282628" fill-rule="evenodd"/>
        <path id="Path_335" data-name="Path 335" d="M538.03,299.927a.933.933,0,0,1-.653.267.979.979,0,0,1-.94-1.115q.068-.067.138-.129a1.01,1.01,0,0,0-.012.157.963.963,0,0,0,.95.976.927.927,0,0,0,.517-.157Z" transform="translate(-493.668 -260.332)" fill="#464749" fill-rule="evenodd"/>
        <path id="Path_336" data-name="Path 336" d="M461.1,351.466a3,3,0,0,1,3.627-2.715,5.446,5.446,0,0,0-1.61.732c4.05,5.463,17.944,7.72,23.725,2.8a10.785,10.785,0,0,1-.746-2.277,10.027,10.027,0,0,0,1.46,2.17,3.148,3.148,0,0,1,.411.638l.015.016-.005,0h0a3.591,3.591,0,0,1-.493.436h0a10.54,10.54,0,0,1-2.31,1.422,6.228,6.228,0,0,1-3.948,5.4c-6.5,2.706-16.122-4.415-18.8-10.077a10.269,10.269,0,0,0-1.326,1.445Zm22.861,3.712c-6.177,2.117-15.109.4-19.753-3.416,3.677,4.8,11.957,9.66,17.019,7.048a4.462,4.462,0,0,0,2.735-3.632Z" transform="translate(-440.862 -295.199)" fill="#b13628" fill-rule="evenodd"/>
        <path id="Path_337" data-name="Path 337" d="M524.956,384.381a7.7,7.7,0,0,0,5.682-3.952s0,4.34-5.682,3.952Z" transform="translate(-485.626 -317.452)" fill="#b13628" fill-rule="evenodd"/>
        <path id="Path_338" data-name="Path 338" d="M513.557,312.494a17.59,17.59,0,0,0,.032,6.211c.019.071.108.156.06.207-2.03,2.162,2.19,1.375,4.473.825.554-.134-3.451-1.471-3.475-1.483-.989-1.487-1.012-3.161-1.091-5.761Z" transform="translate(-477.323 -269.826)" fill="#fba879" fill-rule="evenodd"/>
      </g>
    </g>
  </g>
</svg>
