<?xml version="1.0" encoding="utf-8"?>
<!-- Generator: Adobe Illustrator 17.0.0, SVG Export Plug-In . SVG Version: 6.00 Build 0)  -->
<!DOCTYPE svg PUBLIC "-//W3C//DTD SVG 1.1//EN" "http://www.w3.org/Graphics/SVG/1.1/DTD/svg11.dtd">
<svg version="1.1" id="Layer_1" xmlns="http://www.w3.org/2000/svg" xmlns:xlink="http://www.w3.org/1999/xlink" x="0px" y="0px"
	 width="21px" height="21px" viewBox="1681.5 961.5 21 21" enable-background="new 1681.5 961.5 21 21" xml:space="preserve">
<g>
	<g>
		<defs>
			<path id="SVGID_1_" d="M1701.768,970.141h-9.535v3.953h5.488c-0.512,2.512-2.651,3.953-5.488,3.953
				c-3.349,0-6.047-2.698-6.047-6.047s2.698-6.047,6.047-6.047c1.442,0,2.744,0.512,3.767,1.349l2.977-2.977
				c-1.814-1.581-4.14-2.558-6.744-2.558c-5.674,0-10.233,4.558-10.233,10.233s4.558,10.233,10.233,10.233
				c5.116,0,9.767-3.721,9.767-10.233C1702.001,971.396,1701.908,970.745,1701.768,970.141z"/>
		</defs>
		<clipPath id="SVGID_2_">
			<use xlink:href="#SVGID_1_"  overflow="visible"/>
		</clipPath>
		<path clip-path="url(#SVGID_2_)" fill="#FBBC05" d="M1681.071,978.048v-12.093l7.907,6.047L1681.071,978.048z"/>
	</g>
</g>
<g>
	<g>
		<defs>
			<path id="SVGID_3_" d="M1701.768,970.141h-9.535v3.953h5.488c-0.512,2.512-2.651,3.953-5.488,3.953
				c-3.349,0-6.047-2.698-6.047-6.047s2.698-6.047,6.047-6.047c1.442,0,2.744,0.512,3.767,1.349l2.977-2.977
				c-1.814-1.581-4.14-2.558-6.744-2.558c-5.674,0-10.233,4.558-10.233,10.233s4.558,10.233,10.233,10.233
				c5.116,0,9.767-3.721,9.767-10.233C1702.001,971.396,1701.908,970.745,1701.768,970.141z"/>
		</defs>
		<clipPath id="SVGID_4_">
			<use xlink:href="#SVGID_3_"  overflow="visible"/>
		</clipPath>
		<path clip-path="url(#SVGID_4_)" fill="#EA4335" d="M1681.071,965.954l7.907,6.047l3.256-2.837l11.163-1.814v-6.512h-22.326
			L1681.071,965.954L1681.071,965.954z"/>
	</g>
</g>
<g>
	<g>
		<defs>
			<path id="SVGID_5_" d="M1701.768,970.141h-9.535v3.953h5.488c-0.512,2.512-2.651,3.953-5.488,3.953
				c-3.349,0-6.047-2.698-6.047-6.047s2.698-6.047,6.047-6.047c1.442,0,2.744,0.512,3.767,1.349l2.977-2.977
				c-1.814-1.581-4.14-2.558-6.744-2.558c-5.674,0-10.233,4.558-10.233,10.233s4.558,10.233,10.233,10.233
				c5.116,0,9.767-3.721,9.767-10.233C1702.001,971.396,1701.908,970.745,1701.768,970.141z"/>
		</defs>
		<clipPath id="SVGID_6_">
			<use xlink:href="#SVGID_5_"  overflow="visible"/>
		</clipPath>
		<path clip-path="url(#SVGID_6_)" fill="#34A853" d="M1681.071,978.048l13.953-10.698l3.674,0.465l4.698-6.977v22.326h-22.326
			v-5.116H1681.071z"/>
	</g>
</g>
<g>
	<g>
		<defs>
			<path id="SVGID_7_" d="M1701.768,970.141h-9.535v3.953h5.488c-0.512,2.512-2.651,3.953-5.488,3.953
				c-3.349,0-6.047-2.698-6.047-6.047s2.698-6.047,6.047-6.047c1.442,0,2.744,0.512,3.767,1.349l2.977-2.977
				c-1.814-1.581-4.14-2.558-6.744-2.558c-5.674,0-10.233,4.558-10.233,10.233s4.558,10.233,10.233,10.233
				c5.116,0,9.767-3.721,9.767-10.233C1702.001,971.396,1701.908,970.745,1701.768,970.141z"/>
		</defs>
		<clipPath id="SVGID_8_">
			<use xlink:href="#SVGID_7_"  overflow="visible"/>
		</clipPath>
		<path clip-path="url(#SVGID_8_)" fill="#4285F4" d="M1703.396,983.164l-14.418-11.163l-1.86-1.395l16.279-4.651v17.209H1703.396z"
			/>
	</g>
</g>
</svg>
