<svg xmlns="http://www.w3.org/2000/svg" width="85.303" height="70.2" viewBox="0 0 85.303 70.2">
  <g id="Group_258" data-name="Group 258" transform="translate(-1102.9 -1658.9)">
    <g id="step2" transform="translate(1103 1659.009)" fill="#e2202b">
      <path d="M 22.6468563079834 70.04084014892578 C 21.62200164794922 70.04085540771484 20.59955596923828 69.89324951171875 19.60791206359863 69.60214233398438 C 17.38221168518066 68.94816589355469 15.4760570526123 67.62958526611328 14.09550094604492 65.78894805908203 C 12.71487903594971 63.9482307434082 11.9947566986084 61.76521682739258 12.01300144195557 59.47592926025391 C 12.01300144195557 59.39719772338867 12.02009010314941 59.31927490234375 12.02694606781006 59.24391937255859 C 12.03043460845947 59.20555877685547 12.03379440307617 59.16864395141602 12.03624439239502 59.13208389282227 L 9.100001335144043 59.13208389282227 L 9.045090675354004 59.13208389282227 L 9.050223350524902 59.07740783691406 L 9.132223129272461 58.20415115356445 C 9.330179214477539 56.00112915039063 10.08785724639893 53.86043930053711 11.32332324981689 52.01371765136719 C 12.52210998535156 50.22179794311523 14.15614986419678 48.72832489013672 16.05801391601563 47.68426132202148 L 5.092001438140869 47.68426132202148 L 5.042001247406006 47.68426132202148 L 5.042001247406006 47.63426208496094 L 5.042001247406006 46.61882019042969 L 1.342773430224042e-06 46.61882019042969 L -0.04999865591526031 46.61882019042969 L -0.04999865591526031 46.56881713867188 L -0.04999865591526031 27.14151763916016 L -0.04999865591526031 27.09151840209961 L 1.342773430224042e-06 27.09151840209961 L 19.57100105285645 27.09151840209961 L 19.62100219726563 27.09151840209961 L 19.62100219726563 27.14151763916016 L 19.62100219726563 39.93129730224609 C 20.50852203369141 39.11542510986328 21.66043853759766 38.66645431518555 22.8779239654541 38.66450881958008 L 24.69957733154297 38.66450881958008 C 23.20869255065918 36.67075729370117 22.48280334472656 34.21714401245117 22.65436744689941 31.74379539489746 C 22.82825660705566 29.23699569702148 23.91264533996582 26.87413024902344 25.70775604248047 25.09048461914063 L 38.45921325683594 12.74038505554199 L 38.49486923217773 12.70585155487061 L 38.52965545654297 12.74124050140381 L 42.95696258544922 17.24431800842285 L 62.06800079345703 17.24431800842285 L 62.11800003051758 17.24431800842285 L 62.11800003051758 17.29431915283203 L 62.11800003051758 24.74550628662109 L 62.11800003051758 24.79550743103027 L 62.06800079345703 24.79550743103027 L 39.97824096679688 24.79550743103027 L 32.56277847290039 31.97636222839355 C 32.46708679199219 32.07987976074219 32.40605545043945 32.2133674621582 32.39012908935547 32.35418319702148 L 47.71501159667969 37.17757415771484 L 47.74568939208984 37.18721771240234 L 47.7496223449707 37.21913909912109 L 50.01420974731445 55.56668472290039 L 51.24287796020508 55.56668472290039 C 51.94564819335938 51.50598526000977 53.73007583618164 47.68740463256836 56.40481185913086 44.5215950012207 C 59.08143997192383 41.35354995727539 62.57158660888672 38.93151473999023 66.49948883056641 37.51580047607422 L 67.18579864501953 21.60214042663574 L 64.34799957275391 21.60214042663574 L 64.29800415039063 21.60214042663574 L 64.29800415039063 21.5521411895752 L 64.29800415039063 19.95545196533203 L 64.29800415039063 19.90545082092285 L 64.34799957275391 19.90545082092285 L 68.64369201660156 19.90545082092285 L 68.83950042724609 19.87168502807617 L 68.87918853759766 19.8648509979248 L 68.89433288574219 19.90215110778809 L 68.89567565917969 19.90545082092285 L 68.90699768066406 19.90545082092285 L 68.95700073242188 19.90545082092285 L 68.95700073242188 19.95545196533203 L 68.95700073242188 20.05502510070801 L 73.46611022949219 31.0738353729248 C 73.93910980224609 30.90571212768555 74.43392944335938 30.81903648376465 74.93771362304688 30.81612968444824 C 76.14093780517578 30.82577323913574 77.26764678955078 31.29629516601563 78.11101531982422 32.14104080200195 C 78.95458984375 32.98600769042969 79.41378021240234 34.10430908203125 79.40399932861328 35.28993988037109 C 79.39002227783203 36.99014282226563 78.37723541259766 38.54678344726563 76.8194580078125 39.26927947998047 L 79.61228179931641 46.09355163574219 L 79.65007781982422 46.18591690063477 L 79.55345916748047 46.16088485717773 L 78.00145721435547 45.75875091552734 C 76.81242370605469 45.44338607788086 75.58636474609375 45.28353118896484 74.35709381103516 45.28353118896484 C 70.78970336914063 45.28353118896484 67.39295196533203 46.60320281982422 64.78629302978516 49.00063705444336 L 67.36893463134766 51.56432723999023 C 69.30481719970703 49.85578536987305 71.79985046386719 48.91483306884766 74.39997863769531 48.91384124755859 L 74.45732116699219 48.9136962890625 C 77.30241394042969 48.9136962890625 79.98069763183594 50.0030517578125 81.99880218505859 51.98110580444336 C 84.01779937744141 53.96005249023438 85.13799285888672 56.59556198120117 85.15299987792969 59.40214157104492 C 85.16806793212891 62.2185173034668 84.06941223144531 64.87211608886719 82.05941009521484 66.87411499023438 C 80.04962158203125 68.87590789794922 77.36933135986328 69.98651885986328 74.51226043701172 70.00136566162109 L 74.45470428466797 70.00151062011719 C 71.60962677001953 70.0015869140625 68.93133544921875 68.91223907470703 66.91321563720703 66.93415069580078 C 64.89420318603516 64.95518493652344 63.77401351928711 62.31966400146484 63.75900268554688 59.5130615234375 C 63.74604797363281 57.06444931030273 64.60447692871094 54.67539978027344 66.17724609375 52.78035736083984 L 63.59428787231445 50.21632766723633 C 60.82040405273438 53.35177230834961 59.61513137817383 57.50224304199219 60.28734588623047 61.6119499206543 L 60.42643356323242 62.53012847900391 L 60.43514633178711 62.58761978149414 L 60.37700271606445 62.58761978149414 L 32.821044921875 62.58761978149414 C 32.15016555786133 64.77886199951172 30.80913543701172 66.65049743652344 28.94106864929199 68.0020751953125 C 27.12400054931641 69.31676483154297 24.88866806030273 70.04080963134766 22.6468563079834 70.04084014892578 Z M 13.74727630615234 59.13208389282227 C 13.74456977844238 59.173095703125 13.74094486236572 59.21370315551758 13.73741245269775 59.25333023071289 C 13.73051261901855 59.33053970336914 13.72400093078613 59.40347290039063 13.72400093078613 59.4763298034668 C 13.71209049224854 64.34152984619141 17.71863555908203 68.31864929199219 22.65523529052734 68.34213256835938 C 27.59192276000977 68.31964111328125 31.59891319274902 64.34252166748047 31.58700180053711 59.4764518737793 C 31.58700180053711 59.40029525756836 31.57974624633789 59.32252883911133 31.57272338867188 59.24732971191406 C 31.56919097900391 59.20949172973633 31.56557464599609 59.17074203491211 31.56286811828613 59.13208389282227 L 27.90922737121582 59.13208389282227 C 27.91107368469238 59.15343856811523 27.91301727294922 59.17476272583008 27.91495704650879 59.19604110717773 C 27.9233341217041 59.28813934326172 27.9320011138916 59.38337326049805 27.9320011138916 59.4763298034668 C 27.9320011138916 62.34514236450195 25.56430053710938 64.67908477783203 22.65400123596191 64.67908477783203 C 19.74370193481445 64.67908477783203 17.37600135803223 62.34514236450195 17.37600135803223 59.4763298034668 C 17.37600135803223 59.3773307800293 17.38502311706543 59.27978515625 17.39374542236328 59.18545150756836 C 17.3953971862793 59.16759872436523 17.39704513549805 59.14980697631836 17.39862251281738 59.13208389282227 L 13.74727630615234 59.13208389282227 Z M 67.39813995361328 53.98717880249023 C 66.15235900878906 55.54487609863281 65.46804046630859 57.49190902709961 65.47000122070313 59.47628402709961 C 65.50450134277344 64.29556274414063 69.51060485839844 68.21686553955078 74.40027618408203 68.21718597412109 L 74.46466064453125 68.21696472167969 C 79.38899230957031 68.18270874023438 83.36775970458984 64.20613098144531 83.33399963378906 59.35248565673828 C 83.29933166503906 54.53269577026367 79.29238891601563 50.61150741577148 74.40184783935547 50.61150741577148 C 72.25706481933594 50.61345672607422 70.19252014160156 51.37886810302734 68.58047485351563 52.76780700683594 L 71.18474578857422 55.35283279418945 C 72.09507751464844 54.638916015625 73.23497772216797 54.24298858642578 74.39974212646484 54.23710632324219 L 74.43328857421875 54.23700714111328 C 75.84364318847656 54.23700714111328 77.17154693603516 54.77680587768555 78.17239379882813 55.75696182250977 C 79.17388153076172 56.73777389526367 79.73024749755859 58.04455184936523 79.73899841308594 59.43659591674805 C 79.74778747558594 60.83394241333008 79.20391082763672 62.15095138549805 78.20756530761719 63.14504241943359 C 77.21136474609375 64.13897705078125 75.88198852539063 64.69111633300781 74.46430206298828 64.69978332519531 L 74.43075561523438 64.69988250732422 C 71.523193359375 64.70005035400391 69.14303588867188 62.36753082275391 69.125 59.50029754638672 C 69.11899566650391 58.45664215087891 69.42398834228516 57.44776916503906 70.00735473632813 56.5799674987793 L 67.39813995361328 53.98717880249023 Z M 19.13436508178711 59.13208389282227 C 19.0315055847168 60.03683471679688 19.28378486633301 60.9310188293457 19.84707832336426 61.6545295715332 C 20.43094635009766 62.40447235107422 21.27654647827148 62.88178634643555 22.22809028625488 62.99853897094727 C 22.37581253051758 63.01673889160156 22.52572441101074 63.02597427368164 22.67365646362305 63.02598571777344 C 24.46057891845703 63.02607345581055 25.97545623779297 61.70582962036133 26.19740104675293 59.95496368408203 C 26.21701240539551 59.79741668701172 26.22596740722656 59.63655090332031 26.22400093078613 59.4769401550293 C 26.21423149108887 59.36089324951172 26.19863891601563 59.24423217773438 26.17773056030273 59.13208389282227 L 19.13436508178711 59.13208389282227 Z M 71.26238250732422 57.82734298706055 C 70.84123229980469 58.63080978393555 70.75173187255859 59.54811859130859 71.01111602783203 60.41800689697266 C 71.27989959716797 61.31947326660156 71.88982391357422 62.06216430664063 72.72852325439453 62.50927352905273 C 73.24625396728516 62.78498458862305 73.82894897460938 62.93071746826172 74.41358947753906 62.93071746826172 C 75.72083282470703 62.93071746826172 76.91886901855469 62.2274169921875 77.54016876220703 61.09528350830078 C 77.98820495605469 60.27799606323242 78.08861541748047 59.33710861206055 77.82289123535156 58.44594192504883 C 77.55409240722656 57.54447555541992 76.94416809082031 56.80178451538086 76.10547637939453 56.35467529296875 C 75.58854675292969 56.07929611206055 75.00496673583984 55.93373870849609 74.41785430908203 55.93373870849609 L 74.40024566650391 55.93378448486328 C 73.67987060546875 55.93473815917969 72.98819732666016 56.14895629882813 72.39580535888672 56.55388641357422 L 74.33322143554688 58.4769172668457 C 74.49468231201172 58.6375617980957 74.58377075195313 58.8504524230957 74.58412170410156 59.07640838623047 C 74.58448028564453 59.29529190063477 74.50148773193359 59.50216293334961 74.34999847412109 59.6612663269043 L 74.34999847412109 59.66170883178711 L 74.33526611328125 59.67735290527344 C 74.17413330078125 59.83769607543945 73.95943450927734 59.92600631713867 73.730712890625 59.92600631713867 C 73.50595855712891 59.92600631713867 73.29409027099609 59.84028625488281 73.13413238525391 59.68463897705078 L 73.12689971923828 59.67751693725586 L 71.26238250732422 57.82734298706055 Z M 33.18292617797852 60.88108444213867 L 58.469482421875 60.88108444213867 C 58.42100524902344 60.40968322753906 58.39595413208008 59.93408966064453 58.39500045776367 59.46657562255859 C 58.39398956298828 55.38922500610352 59.95969009399414 51.51308059692383 62.80345153808594 48.55152893066406 C 62.83885192871094 48.47921371459961 62.88308334350586 48.41366195678711 62.93501281738281 48.35657501220703 L 62.93769073486328 48.35364151000977 L 62.94079208374023 48.35116195678711 C 62.9780158996582 48.32141494750977 63.0169792175293 48.29544067382813 63.05971908569336 48.27191162109375 C 64.54585266113281 46.78249359130859 66.29060363769531 45.61758041381836 68.24555969238281 44.80956268310547 C 70.20256042480469 44.00069427490234 72.27071380615234 43.59057235717773 74.39255523681641 43.59057235717773 L 74.4000244140625 43.59057235717773 C 75.209716796875 43.59247970581055 76.02330780029297 43.65752410888672 76.81995391845703 43.78396224975586 L 75.13995361328125 39.67844772338867 C 75.11465454101563 39.68026733398438 75.08888244628906 39.68381500244141 75.06206512451172 39.68750762939453 C 75.02149963378906 39.69309616088867 74.97955322265625 39.69887542724609 74.93600463867188 39.69887542724609 L 74.88600158691406 39.69887542724609 L 74.88600158691406 39.64887237548828 L 74.88600158691406 39.05846786499023 L 68.78514099121094 24.14967918395996 L 68.157958984375 38.7166633605957 L 68.15647125244141 38.75129699707031 L 68.12350463867188 38.76203918457031 L 67.59449768066406 38.93452835083008 C 59.62986755371094 41.58188629150391 53.96946716308594 48.32425308227539 52.82252502441406 56.53036117553711 L 52.72753524780273 57.22019577026367 L 52.72159194946289 57.26337432861328 L 52.67800140380859 57.26337432861328 L 36.04808807373047 57.26337432861328 C 36.10301971435547 57.59168243408203 36.15048980712891 57.89121246337891 36.17976760864258 58.19416427612305 L 36.26277923583984 59.06749725341797 L 36.26797866821289 59.12223052978516 L 36.2130012512207 59.12223052978516 L 33.26569366455078 59.12223052978516 C 33.26840591430664 59.16318130493164 33.27226257324219 59.20420074462891 33.27603530883789 59.2442626953125 C 33.28290176391602 59.31725311279297 33.29000091552734 59.39273071289063 33.29000091552734 59.46647262573242 C 33.28612899780273 59.94125747680664 33.2501220703125 60.41670608520508 33.18292617797852 60.88108444213867 Z M 10.9590311050415 57.43047332763672 L 34.35496139526367 57.43047332763672 C 33.39674377441406 51.77952194213867 28.49432182312012 47.68426132202148 22.67534637451172 47.68426132202148 L 22.66504669189453 47.68426132202148 L 22.64500045776367 47.68426132202148 L 22.63877868652344 47.68426132202148 C 16.81889533996582 47.68426132202148 11.91642570495605 51.77952194213867 10.9590311050415 57.43047332763672 Z M 35.66326522827148 55.56767272949219 L 40.19346237182617 55.56767272949219 L 39.2217903137207 47.68426132202148 L 29.26959609985352 47.68426132202148 C 30.78487586975098 48.51766586303711 32.10647583007813 49.61440277099609 33.19990158081055 50.94633102416992 C 34.32709121704102 52.31940841674805 35.15573501586914 53.87395477294922 35.66326522827148 55.56767272949219 Z M 27.46355247497559 39.18296432495117 L 40.36000061035156 43.24002838134766 L 40.39068984985352 43.24968338012695 L 40.39462280273438 43.28160858154297 L 41.83551406860352 54.96079254150391 L 48.12324905395508 54.19620895385742 L 46.1843147277832 38.4765739440918 L 30.9849910736084 33.69322967529297 L 30.96131324768066 33.68578338623047 L 30.95293426513672 33.66241836547852 L 30.81893539428711 33.28887557983398 C 30.72445678710938 33.02553939819336 30.67603492736816 32.74832916259766 30.67500114440918 32.46495056152344 C 30.67294502258301 31.83167457580566 30.91661262512207 31.23050689697266 31.36111259460449 30.77217483520508 L 37.53049087524414 24.7974739074707 L 34.45400238037109 24.7974739074707 L 34.40400314331055 24.7974739074707 L 34.40400314331055 24.74747467041016 L 34.40400314331055 23.15079689025879 L 34.40400314331055 23.10079574584961 L 34.45400238037109 23.10079574584961 L 39.27976989746094 23.10079574584961 L 39.37523651123047 23.00841903686523 L 39.41170120239258 22.97312927246094 L 39.44644546508789 23.01011848449707 L 39.53163528442383 23.10079574584961 L 60.40999984741211 23.10079574584961 L 60.40999984741211 18.94297409057617 L 42.41328430175781 18.94297409057617 L 42.35883331298828 18.99586296081543 L 42.32322311401367 19.03046226501465 L 42.28837966918945 18.99507331848145 L 42.2370719909668 18.94297409057617 L 40.08200073242188 18.94297409057617 L 40.03200149536133 18.94297409057617 L 40.03200149536133 18.89297294616699 L 40.03200149536133 17.29628562927246 L 40.03200149536133 17.24628448486328 L 40.08200073242188 17.24628448486328 L 40.56872177124023 17.24628448486328 L 38.46514129638672 15.10673046112061 L 26.91078948974609 26.29630661010742 C 25.25111198425293 27.9505729675293 24.33745765686035 30.14335250854492 24.338623046875 32.47020721435547 C 24.33980178833008 34.7975959777832 25.25593376159668 36.99000549316406 26.91826820373535 38.64358520507813 L 27.46355247497559 39.18296432495117 Z M 19.75900077819824 45.98757553100586 L 39.0074462890625 45.98757553100586 L 38.82831954956055 44.53709030151367 L 26.55900192260742 40.67823028564453 L 26.54725646972656 40.67453002929688 L 26.5385684967041 40.66580581665039 L 26.2352294921875 40.3611946105957 L 22.87822341918945 40.3611946105957 C 21.15435600280762 40.36894226074219 19.75507926940918 41.75689697265625 19.75900077819824 43.45517349243164 L 19.75900077819824 45.98757553100586 Z M 1.657001376152039 44.9221305847168 L 17.91200065612793 44.9221305847168 L 17.91200065612793 28.7881965637207 L 1.657001376152039 28.7881965637207 L 1.657001376152039 44.9221305847168 Z M 74.10551452636719 32.64707946777344 L 76.17409515380859 37.70206069946289 C 77.104248046875 37.23941421508789 77.70304107666016 36.28582382202148 77.70400238037109 35.25794219970703 C 77.70694732666016 33.75259780883789 76.46664428710938 32.52166748046875 74.93906402587891 32.51379776000977 C 74.65381622314453 32.51565551757813 74.37366485595703 32.56046676635742 74.10551452636719 32.64707946777344 Z M 14.79500102996826 22.13830757141113 L 14.74500179290771 22.13830757141113 L 5.092001438140869 22.13830757141113 L 5.042001247406006 22.13830757141113 L 5.042001247406006 22.08830642700195 L 5.042001247406006 20.49162864685059 L 5.042001247406006 20.44162940979004 L 5.092001438140869 20.44162940979004 L 14.74500179290771 20.44162940979004 L 14.79500102996826 20.44162940979004 L 14.79500102996826 20.49162864685059 L 14.79500102996826 22.08830642700195 L 14.79500102996826 22.13830757141113 Z M 32.22200012207031 16.54892921447754 L 32.17200088500977 16.54892921447754 L 13.67200088500977 16.54892921447754 L 13.62200164794922 16.54892921447754 L 13.62200164794922 16.49892997741699 L 13.62200164794922 14.90225124359131 L 13.62200164794922 14.85225200653076 L 13.67200088500977 14.85225200653076 L 32.17200088500977 14.85225200653076 L 32.22200012207031 14.85225200653076 L 32.22200012207031 14.90225124359131 L 32.22200012207031 16.49892997741699 L 32.22200012207031 16.54892921447754 Z M 44.51668930053711 15.35359573364258 C 42.44064712524414 15.35359573364258 40.48531341552734 14.55956268310547 39.01089096069336 13.11776256561279 C 37.53555679321289 11.67506313323975 36.71450042724609 9.75232982635498 36.69900131225586 7.703751564025879 C 36.6678581237793 3.455040454864502 40.14925765991211 -0.02730388753116131 44.45963287353516 -0.05900388956069946 L 44.5173225402832 -0.05920388922095299 C 46.59337997436523 -0.05920388922095299 48.54871368408203 0.7348294258117676 50.02312469482422 2.176629543304443 C 51.49845504760742 3.619329452514648 52.31949996948242 5.542062759399414 52.33500289916992 7.590640544891357 L 52.33500289916992 7.647196292877197 C 52.34604644775391 11.87556266784668 48.86458969116211 15.33260726928711 44.57424545288086 15.35339641571045 L 44.51668930053711 15.35359573364258 Z M 44.52410125732422 1.637485027313232 C 41.18922424316406 1.637485027313232 38.45452499389648 4.312385082244873 38.42800140380859 7.600285053253174 C 38.40225601196289 10.91345119476318 41.11644744873047 13.63035202026367 44.47838973999023 13.65670680999756 L 44.52606964111328 13.65688514709473 C 47.86194610595703 13.65701866149902 50.59746932983398 10.98211860656738 50.62400054931641 7.694107055664063 L 50.62400054931641 7.647196292877197 C 50.63191223144531 4.351040363311768 47.91777801513672 1.655240535736084 44.57373428344727 1.637685060501099 L 44.52410125732422 1.637485027313232 Z" stroke="none"/>
      <path d="M 22.64685440063477 69.99083709716797 C 27.20577812194824 69.99077606201172 31.41530799865723 67.06391143798828 32.78400039672852 62.53761672973633 L 60.37700271606445 62.53761672973633 L 60.23800277709961 61.62001800537109 C 59.5629997253418 57.4932861328125 60.79300308227539 53.28375244140625 63.59200286865234 50.14360809326172 L 66.24500274658203 52.77716445922852 C 64.65800476074219 54.6724739074707 63.79600143432617 57.0556755065918 63.80900192260742 59.51279449462891 C 63.83990097045898 65.28941345214844 68.60077667236328 69.95166015625 74.45469665527344 69.95151519775391 C 74.47369384765625 69.95150756835938 74.49298095703125 69.95146179199219 74.51200103759766 69.95136260986328 C 80.39199829101563 69.92080688476563 85.13400268554688 65.19778442382813 85.10300445556641 59.40240859985352 C 85.07210540771484 53.62578964233398 80.31124877929688 48.96369171142578 74.45732879638672 48.96369171142578 C 74.43832397460938 48.96369171142578 74.41902160644531 48.96374130249023 74.40000152587891 48.96384048461914 C 71.80100250244141 48.96482849121094 69.29499816894531 49.91593933105469 67.36700439453125 51.63286209106445 L 64.71400451660156 48.99932861328125 C 67.35768890380859 46.54981231689453 70.81853485107422 45.23352432250977 74.35709381103516 45.23352432250977 C 75.57688903808594 45.23352432250977 76.80609130859375 45.38998413085938 78.01399993896484 45.71035003662109 L 79.56600189208984 46.11248397827148 L 76.7550048828125 39.2437858581543 C 78.32700347900391 38.53512954711914 79.34000396728516 36.99265289306641 79.35400390625 35.28952789306641 C 79.37400054931641 32.86591720581055 77.39700317382813 30.88584136962891 74.93800354003906 30.86612892150879 C 74.42600250244141 30.86908531188965 73.91799926757813 30.96074104309082 73.43800354003906 31.13716316223145 L 68.90699768066406 20.06486320495605 L 68.90699768066406 19.95545196533203 L 68.86199951171875 19.95545196533203 L 68.84799957275391 19.92096328735352 L 68.64800262451172 19.95545196533203 L 64.34799957275391 19.95545196533203 L 64.34799957275391 21.5521411895752 L 67.23799896240234 21.5521411895752 L 66.54800415039063 37.55149459838867 C 58.53300094604492 40.42749786376953 52.70400238037109 47.32675170898438 51.28499984741211 55.61668395996094 L 49.97000122070313 55.61668395996094 L 47.70000076293945 37.22526168823242 L 32.33700180053711 32.38987350463867 C 32.34600067138672 32.22330856323242 32.41400146484375 32.06364059448242 32.52799987792969 31.9404411315918 L 39.95800018310547 24.74550628662109 L 62.06800079345703 24.74550628662109 L 62.06800079345703 17.29431915283203 L 42.93600082397461 17.29431915283203 L 38.49399948120117 12.77629566192627 L 25.74300193786621 25.12595176696777 C 22.04900169372559 28.79635238647461 21.64800071716309 34.58285140991211 24.80000114440918 38.71450805664063 L 22.87800216674805 38.71450805664063 C 21.64100074768066 38.71648406982422 20.45500183105469 39.19449615478516 19.57100105285645 40.04705047607422 L 19.57100105285645 27.14151763916016 L 1.342773430224042e-06 27.14151763916016 L 1.342773430224042e-06 46.56881713867188 L 5.092001438140869 46.56881713867188 L 5.092001438140869 47.63426208496094 L 16.25600051879883 47.63426208496094 C 12.24300098419189 49.76119613647461 9.584001541137695 53.73516464233398 9.182001113891602 58.20882797241211 L 9.100001335144043 59.08208465576172 L 12.08900165557861 59.08208465576172 C 12.0840015411377 59.21119689941406 12.06300163269043 59.34228515625 12.06300163269043 59.4763298034668 C 12.0260009765625 64.11952209472656 15.10700130462646 68.22753143310547 19.62200164794922 69.55416107177734 C 20.62961769104004 69.84996795654297 21.64657783508301 69.99085235595703 22.64685440063477 69.99083709716797 M 13.70000171661377 59.08208465576172 L 17.45300102233887 59.08208465576172 C 17.44300079345703 59.2102165222168 17.42600059509277 59.34228515625 17.42600059509277 59.4763298034668 C 17.42600059509277 62.32177352905273 19.76700210571289 64.62908172607422 22.65400123596191 64.62908172607422 C 25.54100227355957 64.62908172607422 27.88200187683105 62.32177352905273 27.88200187683105 59.4763298034668 C 27.88200187683105 59.34721755981445 27.8650016784668 59.21514129638672 27.85500144958496 59.08208465576172 L 31.61000061035156 59.08208465576172 C 31.61600112915039 59.21119689941406 31.63700103759766 59.3432731628418 31.63700103759766 59.4763298034668 C 31.64900207519531 64.38070678710938 27.63100051879883 68.36946105957031 22.65500068664551 68.39212799072266 C 17.68000221252441 68.36847686767578 13.66200160980225 64.37973022460938 13.67400169372559 59.4763298034668 C 13.67400169372559 59.34721755981445 13.69400119781494 59.21612930297852 13.70000171661377 59.08208465576172 M 67.39400482177734 53.91257476806641 L 70.07199859619141 56.5737190246582 C 69.48100280761719 57.43809509277344 69.16899871826172 58.45819473266602 69.17500305175781 59.49998474121094 C 69.19293212890625 62.35036849975586 71.54279327392578 64.65005493164063 74.43074798583984 64.64988708496094 C 74.44171905517578 64.64988708496094 74.45301818847656 64.64984893798828 74.46400451660156 64.64978790283203 C 77.36800384521484 64.63204193115234 79.70700073242188 62.29811859130859 79.68900299072266 59.43690872192383 C 79.67106628417969 56.58552551269531 77.32124328613281 54.28700637817383 74.43328857421875 54.28700637817383 C 74.42231750488281 54.28700637817383 74.41098785400391 54.28704071044922 74.40000152587891 54.28710556030273 C 73.22800445556641 54.29301834106445 72.09200286865234 54.69219589233398 71.18099975585938 55.41956329345703 L 68.50700378417969 52.76533126831055 C 70.13300323486328 51.34704208374023 72.22900390625 50.56348419189453 74.40000152587891 50.56150817871094 C 74.40090179443359 50.56150817871094 74.40093994140625 50.56150817871094 74.40184783935547 50.56150817871094 C 79.33760070800781 50.56150817871094 83.34900665283203 54.48708724975586 83.38400268554688 59.35214233398438 C 83.41799926757813 64.24075317382813 79.42500305175781 68.23246002197266 74.46500396728516 68.26696014404297 C 74.44319915771484 68.26711273193359 74.42204284667969 68.26718902587891 74.40027618408203 68.26718902587891 C 69.46912384033203 68.26685333251953 65.45484924316406 64.34444427490234 65.41999816894531 59.4763298034668 C 65.41799926757813 57.45485305786133 66.11399841308594 55.49250793457031 67.39400482177734 53.91257476806641 M 19.09000205993652 59.08208465576172 L 26.21900177001953 59.08208465576172 C 26.2450008392334 59.21218490600586 26.26300048828125 59.34425354003906 26.27400207519531 59.4763298034668 C 26.2760009765625 59.63895034790039 26.26700210571289 59.80059432983398 26.24700164794922 59.96125030517578 C 26.01896667480469 61.76018142700195 24.46574974060059 63.07608032226563 22.67365646362305 63.07598495483398 C 22.52461051940918 63.07597732543945 22.37372207641602 63.06686782836914 22.22200202941895 63.04817199707031 C 20.24600219726563 62.80570602416992 18.84400177001953 61.02964019775391 19.09000205993652 59.08208465576172 M 71.25 57.7446174621582 L 73.16200256347656 59.64190673828125 L 73.16899871826172 59.64880752563477 C 73.32475280761719 59.80036544799805 73.52770233154297 59.87601089477539 73.73070526123047 59.87601089477539 C 73.93695831298828 59.87601089477539 74.14326477050781 59.79787826538086 74.30000305175781 59.64190673828125 L 74.30000305175781 59.64093017578125 C 74.61299896240234 59.32749557495117 74.61199951171875 58.8248405456543 74.29800415039063 58.51240539550781 L 72.31800079345703 56.5471076965332 C 72.92500305175781 56.11737442016602 73.65299987792969 55.88477325439453 74.40000152587891 55.88378524780273 C 74.40596008300781 55.88375473022461 74.41188812255859 55.88373947143555 74.41785430908203 55.88373947143555 C 75.01472473144531 55.88373947143555 75.60324859619141 56.03048324584961 76.12899780273438 56.31055068969727 C 77.87799835205078 57.24293899536133 78.52899932861328 59.3955078125 77.58399963378906 61.11933898925781 C 76.93235778808594 62.30678176879883 75.69327545166016 62.98072052001953 74.41359710693359 62.98072052001953 C 73.83554840087891 62.98072052001953 73.24921417236328 62.84320831298828 72.70500183105469 62.55339431762695 C 70.95600128173828 61.62100601196289 70.30500030517578 59.46845245361328 71.25 57.7446174621582 M 33.2130012512207 59.07223129272461 L 36.2130012512207 59.07223129272461 L 36.13000106811523 58.198974609375 C 36.09799957275391 57.86781692504883 36.04400253295898 57.54059600830078 35.9890022277832 57.21337509155273 L 52.67800140380859 57.21337509155273 L 52.77300262451172 56.52344131469727 C 53.91500091552734 48.35276412963867 59.65000152587891 41.52250671386719 67.57900238037109 38.88699722290039 L 68.10800170898438 38.71450805664063 L 68.74500274658203 23.91956329345703 L 74.93600463867188 39.04862976074219 L 74.93600463867188 39.64887237548828 C 75.01599884033203 39.64887237548828 75.09400177001953 39.6271858215332 75.17300415039063 39.6271858215332 L 76.90000152587891 43.84755325317383 C 76.07400512695313 43.71154022216797 75.23799896240234 43.64255142211914 74.40000152587891 43.64057540893555 C 74.39740753173828 43.64057159423828 74.39514923095703 43.64057159423828 74.39255523681641 43.64057159423828 C 70.14237213134766 43.64057159423828 66.06918334960938 45.32385635375977 63.09000015258789 48.31235122680664 C 63.04800033569336 48.33502960205078 63.00900268554688 48.36065292358398 62.97200012207031 48.39021682739258 C 62.92000198364258 48.44738388061523 62.87800216674805 48.51145172119141 62.84500122070313 48.58044052124023 C 60.01900100708008 51.5205078125 58.44400024414063 55.41660690307617 58.44499969482422 59.46647262573242 C 58.44600296020508 59.95534133911133 58.47299957275391 60.44419479370117 58.52500152587891 60.93108367919922 L 33.125 60.93108367919922 C 33.19800186157227 60.44616317749023 33.23600006103516 59.95631790161133 33.2400016784668 59.46647262573242 C 33.2400016784668 59.33834075927734 33.21800231933594 59.20627212524414 33.2130012512207 59.07223129272461 M 34.41400146484375 57.48047256469727 L 10.90000152587891 57.48047256469727 C 11.8327169418335 51.80411911010742 16.80508613586426 47.63426208496094 22.63877868652344 47.63426208496094 C 22.64056015014648 47.63426208496094 22.64322090148926 47.63426208496094 22.64500045776367 47.63426208496094 L 22.66500091552734 47.63426208496094 C 22.66856384277344 47.63425827026367 22.67178153991699 47.63425827026367 22.67534255981445 47.63425827026367 C 28.50773239135742 47.63425827026367 33.48057174682617 51.80487442016602 34.41400146484375 57.48047256469727 M 29.07200050354004 47.63426208496094 L 39.2660026550293 47.63426208496094 L 40.25 55.61767578125 L 35.63100051879883 55.61767578125 L 35.62599945068359 55.61767578125 C 34.61199951171875 52.1995964050293 32.25200271606445 49.3245735168457 29.07200050354004 47.63426208496094 M 38.46599960327148 15.03628540039063 L 40.6879997253418 17.29628562927246 L 40.08200073242188 17.29628562927246 L 40.08200073242188 18.89297294616699 L 42.25800323486328 18.89297294616699 L 42.32400131225586 18.95999526977539 L 42.39300155639648 18.89297294616699 L 60.46000289916992 18.89297294616699 L 60.46000289916992 23.15079689025879 L 39.51000213623047 23.15079689025879 L 39.40999984741211 23.04435157775879 L 39.30000305175781 23.15079689025879 L 34.45400238037109 23.15079689025879 L 34.45400238037109 24.74747467041016 L 37.65400314331055 24.74747467041016 L 31.39700126647949 30.80698585510254 C 30.9640007019043 31.25346183776855 30.72300148010254 31.84778594970703 30.72500228881836 32.46477508544922 C 30.72600173950195 32.73976135253906 30.77300071716309 33.01277542114258 30.86600112915039 33.27199554443359 L 31.00000190734863 33.64554214477539 L 46.22999954223633 38.43854141235352 L 48.17900085449219 54.23979568481445 L 41.79199981689453 55.01645278930664 L 40.34500122070313 43.2877311706543 L 27.43700218200684 39.22702789306641 L 26.88300132751465 38.67902755737305 C 23.427001953125 35.24123001098633 23.42300224304199 29.70212936401367 26.87600135803223 26.26038551330566 L 38.46599960327148 15.03628540039063 M 22.87800216674805 40.31119537353516 L 26.25600051879883 40.31119537353516 L 26.57400131225586 40.63053131103516 L 38.87400054931641 44.49903869628906 L 39.06400299072266 46.03757476806641 L 19.7090015411377 46.03757476806641 L 19.7090015411377 43.45528411865234 C 19.70500183105469 41.72554016113281 21.12300109863281 40.31908416748047 22.87800216674805 40.31119537353516 M 1.607001304626465 28.73819541931152 L 17.96200180053711 28.73819541931152 L 17.96200180053711 44.97212982177734 L 1.607001304626465 44.97212982177734 L 1.607001304626465 28.73819541931152 M 74.93900299072266 32.46379470825195 C 76.49800109863281 32.47167205810547 77.75700378417969 33.72142791748047 77.75399780273438 35.25798416137695 C 77.75299835205078 36.33032989501953 77.12799835205078 37.30608367919922 76.14800262451172 37.77030563354492 L 74.03900146484375 32.61656188964844 C 74.3280029296875 32.51701736450195 74.63200378417969 32.46576309204102 74.93900299072266 32.46379470825195 M 14.74500179290771 22.08830642700195 L 14.74500179290771 20.49162864685059 L 5.092001438140869 20.49162864685059 L 5.092001438140869 22.08830642700195 L 14.74500179290771 22.08830642700195 M 32.17200088500977 16.49892997741699 L 32.17200088500977 14.90225124359131 L 13.67200088500977 14.90225124359131 L 13.67200088500977 16.49892997741699 L 32.17200088500977 16.49892997741699 M 44.51669311523438 15.3036003112793 C 44.5357780456543 15.3036003112793 44.55488586425781 15.30353260040283 44.57400131225586 15.30339622497559 C 48.84600067138672 15.28269577026367 52.29600143432617 11.85770702362061 52.28499984741211 7.647196292877197 L 52.28499984741211 7.591018199920654 C 52.25314331054688 3.381602048873901 48.78117752075195 -0.009208054281771183 44.51733016967773 -0.009208054281771183 C 44.49824523925781 -0.009208054281771183 44.4791145324707 -0.009140030480921268 44.46000289916992 -0.009003887884318829 C 40.17000198364258 0.02254055626690388 36.71800231933594 3.475118398666382 36.74900054931641 7.703373908996582 C 36.78085708618164 11.91279029846191 40.25284576416016 15.3036003112793 44.51669311523438 15.3036003112793 M 44.52410125732422 1.587489366531372 C 44.54064559936523 1.587489366531372 44.55742263793945 1.587555050849915 44.57400131225586 1.587684988975525 C 47.95400238037109 1.605429410934448 50.68200302124023 4.315840721130371 50.67399978637695 7.647196292877197 L 50.67399978637695 7.694507122039795 C 50.64712905883789 11.02491474151611 47.89925384521484 13.70701503753662 44.52606582641602 13.70688819885254 C 44.51013565063477 13.70688819885254 44.49395751953125 13.70682716369629 44.47800064086914 13.70670700073242 C 41.08300018310547 13.68009567260742 38.35200119018555 10.94601821899414 38.37800216674805 7.599884986877441 C 38.40486907958984 4.269105911254883 41.15176391601563 1.587489366531372 44.52410125732422 1.587489366531372 M 22.6468563079834 70.09084320068359 C 21.61721229553223 70.09085083007813 20.59002304077148 69.94257354736328 19.59383392333984 69.65011596679688 C 17.35769081115723 68.99307250976563 15.44257926940918 67.66828155517578 14.05550098419189 65.81895446777344 C 12.66824531555176 63.96939468383789 11.94467926025391 61.77587509155273 11.9630012512207 59.47552871704102 C 11.9630012512207 59.39491653442383 11.97019004821777 59.31585311889648 11.97715663909912 59.23939514160156 C 11.97892284393311 59.21995544433594 11.98065567016602 59.20088958740234 11.98225116729736 59.18208312988281 L 9.100001335144043 59.18208312988281 L 8.990167617797852 59.18208312988281 L 9.000434875488281 59.0727424621582 L 9.08243465423584 58.19948577880859 C 9.281134605407715 55.98833084106445 10.04165649414063 53.83958435058594 11.28175735473633 51.98591995239258 C 12.4495153427124 50.24040603637695 14.02883434295654 48.77697372436523 15.86587429046631 47.7342643737793 L 5.092001438140869 47.7342643737793 L 4.992001533508301 47.7342643737793 L 4.992001533508301 47.63426208496094 L 4.992001533508301 46.66881942749023 L 1.342773430224042e-06 46.66881942749023 L -0.09999866038560867 46.66881942749023 L -0.09999866038560867 46.56881713867188 L -0.09999866038560867 27.14151763916016 L -0.09999866038560867 27.04151916503906 L 1.342773430224042e-06 27.04151916503906 L 19.57100105285645 27.04151916503906 L 19.67100143432617 27.04151916503906 L 19.67100143432617 27.14151763916016 L 19.67100143432617 39.81917572021484 C 20.55586624145508 39.04251861572266 21.68574714660645 38.61641693115234 22.87784576416016 38.61450576782227 L 24.60034370422363 38.61450576782227 C 23.14221572875977 36.62568283081055 22.43437576293945 34.1927375793457 22.60449028015137 31.74034118652344 C 22.77922439575195 29.2214412689209 23.86880111694336 26.84720802307129 25.67251205444336 25.05501747131348 L 38.42443466186523 12.70446300506592 L 38.49329376220703 12.63777256011963 C 37.31291961669922 11.25786876678467 36.6628303527832 9.530655860900879 36.64900207519531 7.704129219055176 C 36.61765670776367 3.4278404712677 40.12132263183594 -0.07710389047861099 44.45926666259766 -0.1090038865804672 L 44.5173225402832 -0.109203889966011 C 46.60652542114258 -0.109203889966011 48.57426834106445 0.6898961067199707 50.05807876586914 2.1408851146698 C 51.54301071166992 3.592973947525024 52.36938858032227 5.528262615203857 52.38500213623047 7.590262889862061 L 52.38500213623047 7.647196292877197 C 52.39038848876953 9.71021842956543 51.58105850219727 11.6530179977417 50.1060791015625 13.11744022369385 C 48.63155746459961 14.58141803741455 46.66706848144531 15.39325141906738 44.57448959350586 15.403395652771 L 44.51668930053711 15.40359592437744 C 42.5759162902832 15.40359592437744 40.74008941650391 14.71412467956543 39.29951858520508 13.45295715332031 L 42.97792816162109 17.1943187713623 L 62.06800079345703 17.1943187713623 L 62.16800308227539 17.1943187713623 L 62.16800308227539 17.29431915283203 L 62.16800308227539 24.74550628662109 L 62.16800308227539 24.84550666809082 L 62.06800079345703 24.84550666809082 L 39.99848175048828 24.84550666809082 L 32.59970092773438 32.01020812988281 C 32.51983642578125 32.09720611572266 32.46657943725586 32.20481491088867 32.44578552246094 32.31927490234375 L 47.73002243041992 37.12987518310547 L 47.79136657714844 37.14918518066406 L 47.79924392700195 37.21301651000977 L 50.05841445922852 55.51668548583984 L 51.20082092285156 55.51668548583984 C 51.91001510620117 51.46257400512695 53.6951789855957 47.65122985839844 56.36661148071289 44.48933029174805 C 59.04167938232422 41.32312774658203 62.52779388427734 38.90043258666992 66.45098114013672 37.48016738891602 L 67.13359069824219 21.65213966369629 L 64.34799957275391 21.65213966369629 L 64.24800109863281 21.65213966369629 L 64.24800109863281 21.5521411895752 L 64.24800109863281 19.95545196533203 L 64.24800109863281 19.8554515838623 L 64.34799957275391 19.8554515838623 L 68.63945007324219 19.8554515838623 L 68.83100891113281 19.82241821289063 L 68.91036987304688 19.80872917175293 L 68.92932891845703 19.8554515838623 L 69.00700378417969 19.8554515838623 L 69.00700378417969 19.95545196533203 L 69.00700378417969 20.0451774597168 L 73.49442291259766 31.0109806060791 C 73.95904541015625 30.8513069152832 74.44400024414063 30.76897621154785 74.93742370605469 30.76612854003906 C 76.15454864501953 30.7758731842041 77.29369354248047 31.25161743164063 78.14639282226563 32.10571670532227 C 78.99951171875 32.96022796630859 79.46389007568359 34.09121704101563 79.45400238037109 35.29035186767578 C 79.43999481201172 36.99403381347656 78.43442535400391 38.55513763427734 76.88372802734375 39.29431915283203 L 79.65854644775391 46.07460784912109 L 79.73415374755859 46.25936126708984 L 79.54092407226563 46.20928573608398 L 77.98892211914063 45.80715179443359 C 76.80378723144531 45.49282836914063 75.58204650878906 45.33353042602539 74.35709381103516 45.33353042602539 C 70.8199462890625 45.33353042602539 67.45098876953125 46.63565826416016 64.85871887207031 49.00209426879883 L 67.37100982666016 51.49594879150391 C 69.31101989746094 49.79890060424805 71.80335998535156 48.86483001708984 74.39997100830078 48.86384201049805 L 74.45732116699219 48.86369705200195 C 77.31558227539063 48.86369705200195 80.00628662109375 49.9581298828125 82.03379058837891 51.94540786743164 C 84.06240081787109 53.93375015258789 85.18791198730469 56.58185195922852 85.2030029296875 59.40187454223633 C 85.21813201904297 62.23175048828125 84.1142578125 64.89803314208984 82.09470367431641 66.90953826904297 C 80.07554626464844 68.92066192626953 77.3828125 70.03643798828125 74.51251983642578 70.05136108398438 L 74.45470428466797 70.05150604248047 C 71.59645843505859 70.05158233642578 68.90574645996094 68.95716094970703 66.87821197509766 66.96986389160156 C 64.84960174560547 64.98148345947266 63.72409057617188 62.3333740234375 63.70899963378906 59.51332855224609 C 63.69606399536133 57.06822967529297 64.54801940917969 54.68205642700195 66.10963439941406 52.78369140625 L 63.59671783447266 50.2891960144043 C 60.85769653320313 53.40861892700195 59.66974258422852 57.52638626098633 60.33668899536133 61.60387420654297 L 60.47586822509766 62.52264022827148 L 60.49328994750977 62.63761901855469 L 60.37700271606445 62.63761901855469 L 32.85797119140625 62.63761901855469 C 32.18032455444336 64.82417297363281 30.83732223510742 66.69182586669922 28.97039031982422 68.04258728027344 C 27.14484596252441 69.36338806152344 24.89911270141602 70.09080505371094 22.6468563079834 70.09084320068359 Z M 13.79373455047607 59.18208312988281 C 13.79168796539307 59.20763397216797 13.78943347930908 59.23289489746094 13.78721237182617 59.25777435302734 C 13.7804126739502 59.33383941650391 13.774001121521 59.40569686889648 13.774001121521 59.4763298034668 C 13.76215648651123 64.31414794921875 17.74637985229492 68.26878356933594 22.65547943115234 68.29212951660156 C 27.56418991088867 68.26976013183594 31.5488452911377 64.31513214111328 31.53700065612793 59.4765739440918 C 31.53700065612793 59.40262985229492 31.52985763549805 59.32604217529297 31.52293395996094 59.25197219848633 C 31.52078819274902 59.22895431518555 31.51860809326172 59.20559692382813 31.51661491394043 59.18208312988281 L 27.96389007568359 59.18208312988281 C 27.96417427062988 59.18522644042969 27.9644603729248 59.1883659362793 27.96474647521973 59.19150543212891 C 27.97323417663574 59.28471755981445 27.98200225830078 59.38110733032227 27.98200225830078 59.4763298034668 C 27.98200225830078 62.37270736694336 25.59186744689941 64.72908782958984 22.65400123596191 64.72908782958984 C 19.71613502502441 64.72908782958984 17.32600212097168 62.37270736694336 17.32600212097168 59.4763298034668 C 17.32600212097168 59.37545776367188 17.33505630493164 59.27715682983398 17.34384346008301 59.18208312988281 L 13.79373455047607 59.18208312988281 Z M 67.40252685546875 54.0620231628418 C 66.185791015625 55.60353469848633 65.51807403564453 57.52166748046875 65.52000427246094 59.47623062133789 C 65.55429840087891 64.26782989501953 69.53797912597656 68.16685485839844 74.40029144287109 68.16718292236328 L 74.46428680419922 68.16696166992188 C 79.36106872558594 68.13290405273438 83.31756591796875 64.17890930175781 83.28400421142578 59.35284042358398 C 83.24953460693359 54.56042861938477 79.2650146484375 50.66150665283203 74.40184783935547 50.66150665283203 C 72.28719329833984 50.66342926025391 70.2510986328125 51.41158294677734 68.6541748046875 52.77051544189453 L 71.18877410888672 55.286376953125 C 72.10195159912109 54.58272552490234 73.23849487304688 54.19296646118164 74.39949798583984 54.18710708618164 L 74.43328857421875 54.18700790405273 C 75.85680389404297 54.18700790405273 77.19713592529297 54.73187255859375 78.20736694335938 55.72124099731445 C 79.21846008300781 56.71145248413086 79.78015899658203 58.03080749511719 79.78900146484375 59.43627548217773 C 79.79788208007813 60.84711837768555 79.24878692626953 62.17681884765625 78.24288177490234 63.18043899536133 C 77.23733520507813 64.18370819091797 75.89551544189453 64.74104309082031 74.46461486816406 64.74978637695313 L 74.43074798583984 64.74988555908203 C 71.49578857421875 64.75005340576172 69.09321594238281 62.39524078369141 69.07500457763672 59.50061798095703 C 69.06901550292969 58.46060562133789 69.36888885498047 57.45483016967773 69.94294738769531 56.58645248413086 L 67.40252685546875 54.0620231628418 Z M 19.17928504943848 59.18208312988281 C 19.09098052978516 60.05861663818359 19.34052467346191 60.92250442504883 19.88653373718262 61.62381744384766 C 20.46217918395996 62.36319732666016 21.29592323303223 62.83378601074219 22.23417854309082 62.94891738891602 C 22.37991333007813 62.96687316894531 22.52775764465332 62.97597503662109 22.67366790771484 62.97598648071289 C 24.43545722961426 62.97607421875 25.92901229858398 61.67460632324219 26.14779090881348 59.94867324829102 C 26.16696548461914 59.79467010498047 26.17580986022949 59.63732528686523 26.1740550994873 59.48117446899414 C 26.16546440124512 59.37921524047852 26.15267372131348 59.27897644042969 26.13591766357422 59.18208312988281 L 19.17928504943848 59.18208312988281 Z M 71.27571868896484 57.91100692749023 C 70.88737487792969 58.68821334838867 70.80989837646484 59.56819534301758 71.05902099609375 60.40371704101563 C 71.32396697998047 61.29228591918945 71.92523193359375 62.02438354492188 72.75204467773438 62.46515274047852 C 73.26254272460938 62.73700714111328 73.83711242675781 62.88071823120117 74.41358947753906 62.88071823120117 C 75.70259094238281 62.88071823120117 76.88382720947266 62.18736267089844 77.496337890625 61.07122802734375 C 77.93788909912109 60.26577377319336 78.03684234619141 59.33848571777344 77.77497863769531 58.46022796630859 C 77.51002502441406 57.57166290283203 76.90876770019531 56.83956146240234 76.08195495605469 56.39879608154297 C 75.57224273681641 56.12727355957031 74.99680328369141 55.98374176025391 74.41785430908203 55.98374176025391 L 74.40055847167969 55.98378372192383 C 73.71036529541016 55.98469924926758 73.04709625244141 56.18402862548828 72.47434234619141 56.5613899230957 L 74.36844635009766 58.44142913818359 C 74.53942108154297 58.61155319213867 74.63374328613281 58.83699798583984 74.63412475585938 59.07632827758789 C 74.63449096679688 59.30145645141602 74.55165863037109 59.51454544067383 74.40000152587891 59.68094635009766 L 74.40000152587891 59.6824951171875 L 74.37054443359375 59.71278381347656 C 74.19998168945313 59.88253021240234 73.97274780273438 59.97600555419922 73.730712890625 59.97600555419922 C 73.49286651611328 59.97600555419922 73.26861572265625 59.88526153564453 73.09926605224609 59.72047424316406 L 73.09180450439453 59.71313095092773 L 71.27571868896484 57.91100692749023 Z M 33.24051666259766 60.83108520507813 L 58.41419219970703 60.83108520507813 C 58.36918258666992 60.37609100341797 58.34592819213867 59.91764831542969 58.34500122070313 59.4666748046875 C 58.34399032592773 55.37875366210938 59.91261291503906 51.49265670776367 62.76205444335938 48.52243804931641 C 62.7989387512207 48.44869232177734 62.84463119506836 48.38163375854492 62.89802169799805 48.32292938232422 L 62.90336990356445 48.31705093383789 L 62.90958023071289 48.31209564208984 C 62.94720458984375 48.28203201293945 62.98648452758789 48.25561904907227 63.02927780151367 48.23163223266602 C 64.51901245117188 46.73988342285156 66.26752471923828 45.57302093505859 68.22645568847656 44.76336288452148 C 70.18954467773438 43.95197296142578 72.26412200927734 43.54057312011719 74.39255523681641 43.54057312011719 L 74.40000152587891 43.54057312011719 C 75.18269348144531 43.54242324829102 75.96898651123047 43.60305786132813 76.74012756347656 43.72092819213867 L 75.10779571533203 39.73189163208008 C 75.0950927734375 39.73343276977539 75.08212280273438 39.7352180480957 75.06889343261719 39.73704147338867 C 75.02665710449219 39.74286270141602 74.98297882080078 39.74887466430664 74.93600463867188 39.74887466430664 L 74.83599853515625 39.74887466430664 L 74.83599853515625 39.64887237548828 L 74.83599853515625 39.06831359863281 L 68.82527923583984 24.37980270385742 L 68.20791625976563 38.71880722045898 L 68.20492553710938 38.7880859375 L 68.13899993896484 38.80958557128906 L 67.61000061035156 38.98207473754883 C 59.66380310058594 41.62329483032227 54.0163459777832 48.35012817382813 52.87203598022461 56.53728485107422 L 52.77706909179688 57.22701644897461 L 52.76517868041992 57.31337356567383 L 52.67800140380859 57.31337356567383 L 36.10712051391602 57.31337356567383 C 36.15807342529297 57.62001800537109 36.20185089111328 57.90287399291992 36.22953414916992 58.18935012817383 L 36.31255722045898 59.06276321411133 L 36.32295608520508 59.1722297668457 L 36.2130012512207 59.1722297668457 L 33.31967926025391 59.1722297668457 C 33.32160949707031 59.19482803344727 33.32372665405273 59.21735000610352 33.32581329345703 59.23957443237305 C 33.33279037475586 59.31371688842773 33.34000015258789 59.39037322998047 33.34000015258789 59.46647262573242 C 33.33626556396484 59.92442321777344 33.30282211303711 60.38265609741211 33.24051666259766 60.83108520507813 Z M 11.01836967468262 57.38047409057617 L 34.29561233520508 57.38047409057617 C 33.31793975830078 51.78357696533203 28.44993209838867 47.7342643737793 22.67534637451172 47.7342643737793 L 22.66500091552734 47.7342643737793 L 22.64500045776367 47.7342643737793 L 22.63877868652344 47.7342643737793 C 16.8632869720459 47.7342643737793 11.99521350860596 51.78358840942383 11.01836967468262 57.38047409057617 Z M 35.70042419433594 55.51767349243164 L 40.13692474365234 55.51767349243164 L 39.17757415771484 47.7342643737793 L 29.46148681640625 47.7342643737793 C 30.91229057312012 48.5586051940918 32.18161773681641 49.62712097167969 33.23854446411133 50.91460800170898 C 34.36203384399414 52.28317260742188 35.1900749206543 53.83144378662109 35.70042419433594 55.51767349243164 Z M 27.49011611938477 39.13890838623047 L 40.3750114440918 43.19234085083008 L 40.43636703491211 43.21163940429688 L 40.44424438476563 43.27548599243164 L 41.87902450561523 54.90513610839844 L 48.0674934387207 54.15262222290039 L 46.13862991333008 38.51462173461914 L 30.96997833251953 33.74092864990234 L 30.92263412475586 33.72602844238281 L 30.90587997436523 33.67930603027344 L 30.77187919616699 33.30576324462891 C 30.67546844482422 33.03705215454102 30.62605667114258 32.75421905517578 30.62500190734863 32.46514129638672 C 30.62290191650391 31.81870651245117 30.87157821655273 31.20511817932129 31.3252124786377 30.73736190795898 L 37.40700149536133 24.84747314453125 L 34.45400238037109 24.84747314453125 L 34.35400009155273 24.84747314453125 L 34.35400009155273 24.74747467041016 L 34.35400009155273 23.15079689025879 L 34.35400009155273 23.05079650878906 L 34.45400238037109 23.05079650878906 L 39.25952911376953 23.05079650878906 L 39.34045791625977 22.97248458862305 L 39.41339111328125 22.90191841125488 L 39.48287963867188 22.97588539123535 L 39.55325317382813 23.05079650878906 L 60.36000061035156 23.05079650878906 L 60.36000061035156 18.99297332763672 L 42.43357849121094 18.99297332763672 L 42.39368057250977 19.03172874450684 L 42.32243347167969 19.10092926025391 L 42.25274658203125 19.0301628112793 L 42.21612548828125 18.99297332763672 L 40.08200073242188 18.99297332763672 L 39.98200225830078 18.99297332763672 L 39.98200225830078 18.89297294616699 L 39.98200225830078 17.29628562927246 L 39.98200225830078 17.19628524780273 L 40.08200073242188 17.19628524780273 L 40.44944000244141 17.19628524780273 L 38.46427154541016 15.17716598510742 L 26.9455680847168 26.33221817016602 C 25.29590225219727 27.97653007507324 24.3874568939209 30.15672874450684 24.38862419128418 32.47018432617188 C 24.38978958129883 34.78417205810547 25.30068969726563 36.96400833129883 26.95352363586426 38.60812759399414 L 27.49011611938477 39.13890838623047 Z M 19.80900192260742 45.93757247924805 L 38.95089340209961 45.93757247924805 L 38.78263854980469 44.57513046264648 L 26.54400062561035 40.72591781616211 L 26.52051162719727 40.71854019165039 L 26.50314521789551 40.70109558105469 L 26.21445655822754 40.41119766235352 L 22.87844657897949 40.41119766235352 C 21.18209075927734 40.41881942749023 19.80513381958008 41.78428649902344 19.80900192260742 43.45505142211914 L 19.80900192260742 45.93757247924805 Z M 1.707001328468323 44.87213134765625 L 17.86200141906738 44.87213134765625 L 17.86200141906738 28.83819580078125 L 1.707001328468323 28.83819580078125 L 1.707001328468323 44.87213134765625 Z M 74.17243194580078 32.67857360839844 L 76.19979858398438 37.63283157348633 C 77.08573913574219 37.17005157470703 77.653076171875 36.24917602539063 77.65399932861328 35.25789642333984 C 77.65689086914063 33.78007507324219 76.4390869140625 32.57167053222656 74.93912506103516 32.56380081176758 C 74.67732238769531 32.56552124023438 74.41990661621094 32.60409164428711 74.17243194580078 32.67857360839844 Z M 44.52410125732422 1.687484979629517 C 41.21656799316406 1.687484979629517 38.50430297851563 4.340140342712402 38.47800064086914 7.600696086883545 C 38.45246887207031 10.88627433776855 41.14441299438477 13.58057403564453 44.47879028320313 13.60670757293701 L 44.52606964111328 13.60688495635986 C 47.83460235595703 13.60701847076416 50.54769134521484 10.95437431335449 50.57400131225586 7.693696022033691 L 50.57400131225586 7.647196292877197 C 50.58184432983398 4.378418445587158 47.89002227783203 1.705096125602722 44.57347869873047 1.687685012817383 L 44.52410125732422 1.687484979629517 Z M 14.84500122070313 22.18830680847168 L 14.74500179290771 22.18830680847168 L 5.092001438140869 22.18830680847168 L 4.992001533508301 22.18830680847168 L 4.992001533508301 22.08830642700195 L 4.992001533508301 20.49162864685059 L 4.992001533508301 20.39163017272949 L 5.092001438140869 20.39163017272949 L 14.74500179290771 20.39163017272949 L 14.84500122070313 20.39163017272949 L 14.84500122070313 20.49162864685059 L 14.84500122070313 22.08830642700195 L 14.84500122070313 22.18830680847168 Z M 32.27200317382813 16.59893035888672 L 32.17200088500977 16.59893035888672 L 13.67200088500977 16.59893035888672 L 13.57200145721436 16.59893035888672 L 13.57200145721436 16.49892997741699 L 13.57200145721436 14.90225124359131 L 13.57200145721436 14.8022518157959 L 13.67200088500977 14.8022518157959 L 32.17200088500977 14.8022518157959 L 32.27200317382813 14.8022518157959 L 32.27200317382813 14.90225124359131 L 32.27200317382813 16.49892997741699 L 32.27200317382813 16.59893035888672 Z" stroke="none" fill="#e2202b"/>
    </g>
  </g>
</svg>
