<svg xmlns="http://www.w3.org/2000/svg" width="29.648" height="31.815" viewBox="0 0 29.648 31.815">
  <g id="Group_1" data-name="Group 1" transform="translate(-1.25 -1.25)">
    <path id="Path_1" data-name="Path 1" d="M8.8,0A8.8,8.8,0,1,1,0,8.8,8.8,8.8,0,0,1,8.8,0Z" transform="translate(7.13 7.549)" fill="none" stroke="#000" stroke-width="1.5"/>
    <path id="Path_2" data-name="Path 2" d="M0,0V4.331" transform="translate(15.533 27.984)" fill="none" stroke="#e2202b" stroke-linecap="round" stroke-width="1.5"/>
    <path id="Path_3" data-name="Path 3" d="M0,0V3.248" transform="translate(15.533 2)" fill="none" stroke="#e2202b" stroke-linecap="round" stroke-width="1.5"/>
    <path id="Path_4" data-name="Path 4" d="M0,0H3.248" transform="translate(26.901 16.616)" fill="none" stroke="#e2202b" stroke-linecap="round" stroke-width="1.5"/>
    <path id="Path_5" data-name="Path 5" d="M0,0H2.165" transform="translate(2 16.616)" fill="none" stroke="#e2202b" stroke-linecap="round" stroke-width="1.5"/>
    <path id="Path_6" data-name="Path 6" d="M0,0,2.573,2.574" transform="translate(23.88 24.975)" fill="none" stroke="#000" stroke-linecap="round" stroke-width="1.5"/>
    <path id="Path_7" data-name="Path 7" d="M0,0,1.9,1.9" transform="translate(5.4 6.496)" fill="none" stroke="#000" stroke-linecap="round" stroke-width="1.5"/>
    <path id="Path_8" data-name="Path 8" d="M0,1.418,1.419,0" transform="translate(24.078 6.496)" fill="none" stroke="#000" stroke-linecap="round" stroke-width="1.5"/>
    <path id="Path_9" data-name="Path 9" d="M0,2.093,2.1,0" transform="translate(5.4 24.497)" fill="none" stroke="#000" stroke-linecap="round" stroke-width="1.5"/>
  </g>
</svg>
