<svg xmlns="http://www.w3.org/2000/svg" width="26.25" height="26.25" viewBox="0 0 26.25 26.25">
  <path id="Path_437" data-name="Path 437" d="M26.25-21.562a2.712,2.712,0,0,0-.82-1.992,2.712,2.712,0,0,0-1.992-.82H2.813a2.712,2.712,0,0,0-1.992.82A2.712,2.712,0,0,0,0-21.562V-.937A2.712,2.712,0,0,0,.82,1.055a2.712,2.712,0,0,0,1.992.82H14.355V-8.5H10.781V-12.48h3.574v-2.93a5.188,5.188,0,0,1,1.377-3.838,5.028,5.028,0,0,1,3.721-1.377,22.087,22.087,0,0,1,3.047.176v3.516H20.391a2.031,2.031,0,0,0-1.582.527A2.331,2.331,0,0,0,18.457-15v2.52H22.5L21.973-8.5H18.457V1.875h4.98a2.712,2.712,0,0,0,1.992-.82,2.712,2.712,0,0,0,.82-1.992Z" transform="translate(0 24.375)" fill="#333"/>
</svg>
