<svg xmlns="http://www.w3.org/2000/svg" width="26.25" height="26.25" viewBox="0 0 26.25 26.25">
  <path id="Path_439" data-name="Path 439" d="M13.125-17.988a6.557,6.557,0,0,1,3.369.908,6.758,6.758,0,0,1,2.461,2.461,6.557,6.557,0,0,1,.908,3.369,6.557,6.557,0,0,1-.908,3.369A6.758,6.758,0,0,1,16.494-5.42a6.557,6.557,0,0,1-3.369.908A6.557,6.557,0,0,1,9.756-5.42,6.758,6.758,0,0,1,7.295-7.881a6.557,6.557,0,0,1-.908-3.369,6.557,6.557,0,0,1,.908-3.369A6.758,6.758,0,0,1,9.756-17.08,6.557,6.557,0,0,1,13.125-17.988Zm0,11.133A4.233,4.233,0,0,0,16.23-8.145,4.233,4.233,0,0,0,17.52-11.25a4.233,4.233,0,0,0-1.289-3.105,4.233,4.233,0,0,0-3.105-1.289,4.233,4.233,0,0,0-3.105,1.289A4.233,4.233,0,0,0,8.73-11.25,4.233,4.233,0,0,0,10.02-8.145,4.233,4.233,0,0,0,13.125-6.855Zm8.613-11.426a1.521,1.521,0,0,0-.469-1.113,1.521,1.521,0,0,0-1.113-.469,1.521,1.521,0,0,0-1.113.469,1.521,1.521,0,0,0-.469,1.113,1.521,1.521,0,0,0,.469,1.113,1.521,1.521,0,0,0,1.113.469,1.427,1.427,0,0,0,1.084-.469A1.826,1.826,0,0,0,21.738-18.281ZM26.191-16.7q.059,1.641.059,5.449t-.088,5.479a11.05,11.05,0,0,1-.5,2.9A6.829,6.829,0,0,1,24.053-.322,6.829,6.829,0,0,1,21.5,1.289a11.05,11.05,0,0,1-2.9.5q-1.67.088-5.479.088T7.646,1.787a9.568,9.568,0,0,1-2.9-.557A6.246,6.246,0,0,1,2.2-.322,6.829,6.829,0,0,1,.586-2.871a11.05,11.05,0,0,1-.5-2.9Q0-7.441,0-11.25t.088-5.479a11.05,11.05,0,0,1,.5-2.9A6.829,6.829,0,0,1,2.2-22.178a6.829,6.829,0,0,1,2.549-1.611,11.05,11.05,0,0,1,2.9-.5q1.67-.088,5.479-.088t5.479.088a11.05,11.05,0,0,1,2.9.5,6.829,6.829,0,0,1,2.549,1.611,6.829,6.829,0,0,1,1.611,2.549A11.92,11.92,0,0,1,26.191-16.7ZM23.379-3.516a12.337,12.337,0,0,0,.469-3.164q.059-1.289.059-3.633v-1.875q0-2.4-.059-3.633a11.757,11.757,0,0,0-.469-3.164,4.229,4.229,0,0,0-2.52-2.52,11.757,11.757,0,0,0-3.164-.469q-1.289-.059-3.633-.059H12.188q-2.344,0-3.633.059a12.337,12.337,0,0,0-3.164.469,4.229,4.229,0,0,0-2.52,2.52A11.757,11.757,0,0,0,2.4-15.82q-.059,1.289-.059,3.633v1.875q0,2.344.059,3.633a12.337,12.337,0,0,0,.469,3.164A4.442,4.442,0,0,0,5.391-1a12.337,12.337,0,0,0,3.164.469q1.289.059,3.633.059h1.875q2.4,0,3.633-.059A11.757,11.757,0,0,0,20.859-1,4.442,4.442,0,0,0,23.379-3.516Z" transform="translate(0 24.375)" fill="#333"/>
</svg>
