<svg xmlns="http://www.w3.org/2000/svg" width="26.25" height="26.25" viewBox="0 0 26.25 26.25">
  <path id="Path_440" data-name="Path 440" d="M24.375-24.375a1.8,1.8,0,0,1,1.318.557A1.8,1.8,0,0,1,26.25-22.5V0a1.8,1.8,0,0,1-.557,1.318,1.8,1.8,0,0,1-1.318.557H1.875A1.8,1.8,0,0,1,.557,1.318,1.8,1.8,0,0,1,0,0V-22.5a1.8,1.8,0,0,1,.557-1.318,1.8,1.8,0,0,1,1.318-.557ZM7.91-1.875h.059V-14.414H4.043V-1.875ZM5.977-16.113a2.2,2.2,0,0,0,1.611-.674,2.166,2.166,0,0,0,.674-1.582,2.166,2.166,0,0,0-.674-1.582,2.2,2.2,0,0,0-1.611-.674,2.1,2.1,0,0,0-1.582.674,2.215,2.215,0,0,0-.645,1.582,2.215,2.215,0,0,0,.645,1.582A2.1,2.1,0,0,0,5.977-16.113ZM22.5-1.875V-8.73a8.517,8.517,0,0,0-.82-4.277,4.206,4.206,0,0,0-3.809-1.7,4.514,4.514,0,0,0-2.4.645,3.278,3.278,0,0,0-1.289,1.348h-.059v-1.7h-3.75V-1.875h3.867V-8.086a4.808,4.808,0,0,1,.41-2.227,2.066,2.066,0,0,1,1.934-1A1.679,1.679,0,0,1,18.34-10.2a6.208,6.208,0,0,1,.293,2.227v6.094Z" transform="translate(0 24.375)" fill="#333"/>
</svg>
