<svg xmlns="http://www.w3.org/2000/svg" width="26.25" height="26.25" viewBox="0 0 26.25 26.25">
  <path id="Path_438" data-name="Path 438" d="M23.438-24.375a2.712,2.712,0,0,1,1.992.82,2.712,2.712,0,0,1,.82,1.992V-.937a2.712,2.712,0,0,1-.82,1.992,2.712,2.712,0,0,1-1.992.82H2.813A2.712,2.712,0,0,1,.82,1.055,2.712,2.712,0,0,1,0-.937V-21.562a2.712,2.712,0,0,1,.82-1.992,2.712,2.712,0,0,1,1.992-.82Zm-2.871,9.316A8.524,8.524,0,0,0,22.5-17.051a7.835,7.835,0,0,1-2.227.586,3.938,3.938,0,0,0,1.7-2.109,7.287,7.287,0,0,1-2.461.938,3.566,3.566,0,0,0-2.754-1.23,3.773,3.773,0,0,0-2.139.645,3.885,3.885,0,0,0-1.436,1.729,3.748,3.748,0,0,0-.176,2.373,10.5,10.5,0,0,1-4.453-1.2,11.561,11.561,0,0,1-3.516-2.842,3.635,3.635,0,0,0-.527,1.9,3.816,3.816,0,0,0,.469,1.875A3.79,3.79,0,0,0,6.27-13.008a4,4,0,0,1-1.758-.527v.059a3.728,3.728,0,0,0,.879,2.461A3.9,3.9,0,0,0,7.617-9.668a5.245,5.245,0,0,1-1.758.059,3.586,3.586,0,0,0,1.348,1.9,3.668,3.668,0,0,0,2.227.732A7.534,7.534,0,0,1,4.688-5.332H3.75a10.878,10.878,0,0,0,5.918,1.7,10.793,10.793,0,0,0,5.977-1.7,10.606,10.606,0,0,0,3.691-4.16,11.266,11.266,0,0,0,1.23-5.1Z" transform="translate(0 24.375)" fill="#333"/>
</svg>
