<svg xmlns="http://www.w3.org/2000/svg" width="85.103" height="71.022" viewBox="0 0 85.103 71.022">
  <path id="step2" d="M74.4,49.679a10.647,10.647,0,1,1-8.155,3.869l-2.653-2.672A14.216,14.216,0,0,0,60.238,62.52l.139.931H32.784a10.581,10.581,0,0,1-20.721-3.106c0-.136.021-.269.026-.4H9.1l.082-.886A13.539,13.539,0,0,1,16.256,48.33H5.092V47.249H0V27.538H19.571V40.632a4.738,4.738,0,0,1,3.307-1.352H24.8a10.563,10.563,0,0,1,.943-13.787l12.751-12.53,4.442,4.584H62.068v7.56H39.958l-7.43,7.3a.737.737,0,0,0-.191.456L47.7,37.769l2.27,18.66h1.315A23.7,23.7,0,0,1,66.548,38.1l.69-16.233h-2.89v-1.62h4.3l.2-.035.014.035h.045v.111l4.531,11.234a4.367,4.367,0,0,1,1.5-.275,4.452,4.452,0,0,1,1.817,8.5l2.811,6.969-1.552-.408a14.078,14.078,0,0,0-13.3,3.337l2.653,2.672A10.5,10.5,0,0,1,74.4,49.679ZM22.655,69.391a9.024,9.024,0,0,0,8.982-9.046c0-.135-.021-.269-.027-.4H27.855c.01.135.027.269.027.4a5.228,5.228,0,0,1-10.456,0c0-.136.017-.27.027-.4H13.7c-.006.136-.026.269-.026.4A9.025,9.025,0,0,0,22.655,69.391Zm3.619-9.046a3.594,3.594,0,0,0-.055-.4H19.09a3.606,3.606,0,0,0,7.157.892A3.67,3.67,0,0,0,26.274,60.345ZM17.962,29.158H1.607V45.629H17.962ZM10.9,58.32H34.414a11.893,11.893,0,0,0-11.749-9.99h-.02A11.891,11.891,0,0,0,10.9,58.32Zm24.731-1.89H40.25l-.984-8.1H29.072a13.509,13.509,0,0,1,6.554,8.1ZM22.878,40.9a3.183,3.183,0,0,0-3.169,3.19v2.62H39.064l-.19-1.561-12.3-3.925-.318-.324ZM46.23,39,31,34.137l-.134-.379a2.483,2.483,0,0,1-.141-.819,2.424,2.424,0,0,1,.672-1.682l6.257-6.148h-3.2v-1.62H39.3l.11-.108.1.108H60.46v-4.32H42.393l-.069.068-.066-.068H40.082v-1.62h.606l-2.222-2.293L26.876,26.644a8.955,8.955,0,0,0,.007,12.6l.554.556,12.908,4.12,1.447,11.9,6.387-.788Zm31.524-3.227a2.83,2.83,0,0,0-2.815-2.835,2.782,2.782,0,0,0-.9.155l2.109,5.229A2.831,2.831,0,0,0,77.754,35.773ZM74.4,44.278a15.393,15.393,0,0,1,2.5.21l-1.727-4.282c-.079,0-.157.022-.237.022v-.609l-6.191-15.35L68.108,39.28l-.529.175A22.063,22.063,0,0,0,52.773,57.349l-.095.7H35.989c.055.332.109.664.141,1l.083.886h-3c0,.136.027.27.027.4a10.716,10.716,0,0,1-.115,1.486h25.4a14.474,14.474,0,0,1-.08-1.486,16.054,16.054,0,0,1,4.4-11.045.8.8,0,0,1,.127-.193.783.783,0,0,1,.118-.079A15.846,15.846,0,0,1,74.4,44.278ZM65.42,60.345a9.039,9.039,0,1,0,3.087-6.809l2.674,2.693A5.156,5.156,0,0,1,74.4,55.08a5.257,5.257,0,1,1-4.328,2.32l-2.678-2.7A9.033,9.033,0,0,0,65.42,60.345Zm8.88.168a.8.8,0,0,1-1.131.007l-.007-.007L71.25,58.588a3.589,3.589,0,1,0,1.068-1.215l1.98,1.994a.815.815,0,0,1,0,1.145ZM44.574,15.527A7.768,7.768,0,1,1,52.285,7.7v.057A7.749,7.749,0,0,1,44.574,15.527Zm0-13.916a6.148,6.148,0,1,0,6.1,6.2V7.759A6.133,6.133,0,0,0,44.574,1.611Zm-29.829,20.8H5.092v-1.62h9.653ZM13.672,15.12h18.5v1.62h-18.5Z" transform="translate(0 0.009)" fill="#e2202b"/>
</svg>
