<svg xmlns="http://www.w3.org/2000/svg" width="90.447" height="70.357" viewBox="0 0 90.447 70.357">
  <path id="step3" d="M60.175,34.581l-1.221-1.192L88.789,2.783l1.222,1.191Zm-6.112-3.246L73.888,0,75.33.913,55.5,32.248ZM46.6,23.958c1.943-2.4.983-4.771-.128-7.515-1.146-2.834-2.446-6.046.128-9.226L47.931,8.29c-1.941,2.4-.982,4.769.128,7.512,1.147,2.835,2.447,6.048-.128,9.229Zm-9.089,0c1.943-2.4.983-4.771-.127-7.515-1.147-2.834-2.446-6.046.127-9.226L38.842,8.29c-1.941,2.4-.982,4.769.128,7.512,1.146,2.835,2.447,6.048-.128,9.229Zm-9.09,0c1.944-2.4.984-4.771-.127-7.516-1.147-2.834-2.447-6.045.127-9.225L29.752,8.29c-1.941,2.4-.982,4.768.128,7.511,1.147,2.835,2.448,6.048-.128,9.23ZM88.459,37.191A46.829,46.829,0,0,1,60.573,64.9a4.159,4.159,0,0,1,.094.876A4.234,4.234,0,0,1,56.439,70h-24a4.233,4.233,0,0,1-4.228-4.228,4.158,4.158,0,0,1,.094-.876A46.839,46.839,0,0,1,.422,37.191l-.43-1.151h88.9Zm-85.99.555A45.135,45.135,0,0,0,29.656,63.564l.888.307-.027.059H47.906v1.707H29.935c0,.045-.015.09-.015.135a2.524,2.524,0,0,0,2.521,2.521h24a2.509,2.509,0,0,0,2.287-3.569l-.388-.853.886-.307A45.127,45.127,0,0,0,86.413,37.746H2.469ZM58.11,60.339l-.557-1.614A40.173,40.173,0,0,0,78.795,41.572l1.462.882A41.886,41.886,0,0,1,58.11,60.339Z" transform="translate(0.224 0.207)" fill="#e2202b" stroke="#e2202b" stroke-width="0.3"/>
</svg>
