<svg xmlns="http://www.w3.org/2000/svg" width="96.945" height="70" viewBox="0 0 96.945 70">
  <path id="step1" d="M95.836,70.008h-5.6a1.1,1.1,0,0,1-1.1-1.11h0V36.122A62.483,62.483,0,0,1,85.62,16.817c0-14.23,9.909-16.38,10-16.4a1.1,1.1,0,0,1,.91.229,1.115,1.115,0,0,1,.4.862V68.9A1.106,1.106,0,0,1,95.836,70.008ZM94.737,3.06c-2.33,1.064-6.919,4.352-6.919,13.757a60.927,60.927,0,0,0,3.193,17.994h3.726Zm0,33.974h-3.4V67.788h3.4V37.034ZM50.462,68.978A34.206,34.206,0,1,1,84.316,34.424c0,.116,0,.234,0,.35A34.07,34.07,0,0,1,50.462,68.978Zm0-66.188A31.989,31.989,0,1,0,82.117,35.108c0-.11,0-.22,0-.33A31.857,31.857,0,0,0,50.462,2.791Zm0,53.514a21.531,21.531,0,1,1,21.31-21.751c0,.074,0,.148,0,.222A21.445,21.445,0,0,1,50.462,56.3Zm0-40.839a19.309,19.309,0,1,0,19.116,19.5c0-.064,0-.128,0-.192A19.233,19.233,0,0,0,50.462,15.465ZM9.611,23.682v11.13h1.7a1.1,1.1,0,0,1,1.1,1.11h0V68.9a1.106,1.106,0,0,1-1.1,1.109h-5.6a1.106,1.106,0,0,1-1.1-1.109V35.923a1.106,1.106,0,0,1,1.1-1.112h1.7V23.682A8.09,8.09,0,0,1,0,15.221V1.12A1.106,1.106,0,0,1,1.1.008a1.1,1.1,0,0,1,1.1,1.11h0V11.651H4.969V1.12a1.1,1.1,0,0,1,2.2,0h0V11.651H9.861V1.12a1.1,1.1,0,0,1,2.2,0h0V11.651h2.771V1.12a1.1,1.1,0,0,1,2.2,0h0v14.1A8.09,8.09,0,0,1,9.611,23.682Zm-2.8,13.355V67.788h3.4V37.034H6.81ZM14.827,13.88H2.2v1.348a5.979,5.979,0,0,0,6.312,6.3A5.981,5.981,0,0,0,14.823,15.9a5.886,5.886,0,0,0,0-.675V13.873Z" transform="translate(0.009 -0.008)" fill="#e2202b"/>
</svg>
