<?xml version="1.0" encoding="utf-8"?>
<!-- Generator: Adobe Illustrator 17.0.0, SVG Export Plug-In . SVG Version: 6.00 Build 0)  -->
<!DOCTYPE svg PUBLIC "-//W3C//DTD SVG 1.1//EN" "http://www.w3.org/Graphics/SVG/1.1/DTD/svg11.dtd">
<svg version="1.1" id="Layer_1" xmlns="http://www.w3.org/2000/svg" xmlns:xlink="http://www.w3.org/1999/xlink" x="0px" y="0px"
	 width="154.8px" height="51.12px" viewBox="-12.4 -4.108 154.8 51.12" enable-background="new -12.4 -4.108 154.8 51.12"
	 xml:space="preserve">
<g id="Group_4" transform="translate(-27.611 -50.17)">
	<g id="Group_1_1_" transform="translate(27.611 56.924)">
		<path id="Path_1_1_" fill="#E2202B" d="M-2.264,34.658c-1.5,0.081-2.38,0.119-2.635,0.119c-5.067,0-7.6-2.42-7.6-7.259v-31.63
			l6.378,0.525v6.788h3.31v2.852h-3.311V27.37c-0.063,1.191,0.033,2.385,0.286,3.551c0.395,0.949,1.383,1.509,2.4,1.362
			c0.392-0.002,0.784-0.034,1.172-0.094V34.658z"/>
		<path id="Path_2_1_" fill="#E2202B" d="M9.558,11.885v-0.986C9.589,9.811,9.541,8.722,9.415,7.64
			c-0.257-1.373-0.879-2.118-1.87-2.228c-0.288-0.033-0.91-0.047-1.87-0.047l-1.7,0.166v-2.2C5.849,3.25,7.203,3.209,8.036,3.21
			c2.753,0,4.754,0.579,6.005,1.738c1.251,1.159,1.875,3,1.872,5.524V34.54H7.664c-5.705,0-8.557-2.805-8.557-8.416V19.05
			c0-4.857,2.653-7.285,7.959-7.286C7.899,11.74,8.732,11.78,9.558,11.885z M9.558,14.401L7.69,14.28
			c-1.035-0.047-1.705,0.56-2.011,1.823c-0.168,1.022-0.233,2.058-0.194,3.093v6.423c0,2.667,0.186,4.392,0.557,5.177
			c0.305,0.619,0.962,0.983,1.648,0.915h1.868L9.558,14.401z"/>
		<path id="Path_3_1_" fill="#E2202B" d="M24.736,10.567c-0.051,1.087,0.368,2.144,1.15,2.9c0.08,0.081,0.751,0.526,2.013,1.342
			c1.776,1.078,3.446,2.323,4.987,3.717c1.518,1.425,2.392,3.406,2.422,5.488c0,4.061-0.376,6.73-1.129,8.007
			c-1.085,1.839-3.506,2.758-7.262,2.757c-2.876,0-4.914-0.479-6.114-1.438c-1.36-1.085-2.04-3.019-2.039-5.8v-4.963h6.139
			c0,5.385,0.159,8.333,0.478,8.845c0.332,0.519,0.922,0.814,1.536,0.767c1.038,0,1.677-0.647,1.917-1.941
			c0.092-1.045,0.125-2.094,0.1-3.142v-4.218c0-0.785-1.063-1.968-3.189-3.549c-1.485-1.007-2.964-2.022-4.435-3.044
			c-1.515-1.033-2.449-2.724-2.518-4.556c-0.014-0.365-0.024-0.886-0.024-1.557c0-2.589,0.687-4.419,2.062-5.49
			c1.212-0.927,3.152-1.391,5.821-1.391c3.276,0,5.459,0.704,6.548,2.111c0.924,1.2,1.387,3.485,1.389,6.855h-5.969V10.54
			c0-3.18-0.656-4.77-1.968-4.77c-1.004,0-1.619,0.608-1.845,1.823C24.758,7.879,24.736,8.872,24.736,10.567z"/>
		<path id="Path_4_1_" fill="#E2202B" d="M48.06,34.658c-1.5,0.081-2.382,0.119-2.635,0.119c-5.067,0-7.6-2.42-7.6-7.259v-31.63
			l6.378,0.525v6.788h3.308v2.852h-3.309V27.37c-0.063,1.191,0.033,2.385,0.286,3.551c0.395,0.949,1.383,1.509,2.4,1.362
			c0.393-0.002,0.786-0.033,1.174-0.094L48.06,34.658z"/>
		<path id="Path_5_1_" fill="#E2202B" d="M60.743,3.205h6.3v31.31c0.072,1.709-0.755,3.332-2.18,4.278
			c-1.842,1.103-3.973,1.626-6.116,1.5c-1.923,0.019-3.834-0.32-5.633-1l0.025-2.473c1.258,0.693,2.637,1.141,4.063,1.319
			c0.782,0.054,1.567-0.043,2.312-0.286c0.652-0.428,1.062-1.14,1.105-1.919c0.081-0.467,0.121-0.94,0.119-1.414
			c-3.525,0-6.048-0.496-7.568-1.487c-1.908-1.246-2.862-3.546-2.861-6.9V3.205h6.378v22.127c0,3.294,0.273,5.253,0.819,5.877
			c0.362,0.362,0.866,0.545,1.376,0.5h1.856L60.743,3.205z"/>
	</g>
	<g id="Group_2_1_" transform="translate(110.683 63.017)">
		<path id="Path_6_1_" fill="#E2202B" d="M3.589-4.035c5.548,0.5,11.1,0.991,16.641,1.5v6.846c-2.485-0.056-4.989-0.1-7.49-0.139
			c0.045,1.48,0.083,2.809,0.128,4.285c2.442,0.143,4.9,0.268,7.362,0.411v7.042c-2.541,0.042-5.1,0.1-7.66,0.154
			c0.033,1.436,0.061,2.753,0.09,4.12c2.512,0.045,5.043,0.083,7.57,0.128v6.973c-5.589,0.306-11.179,0.622-16.769,0.948
			c-3.501,0.337-6.976-0.86-9.525-3.283c-2.073-1.928-4.321-3.692-6.436-5.605V5.034c2.062-1.9,6.307-5.672,8.556-7.349
			C-1.742-3.825,0.951-4.44,3.589-4.035"/>
		<path id="Path_7_1_" fill="#E2202B" d="M24.18-2.259c5.307,0.474,9.679,0.937,14.982,1.413v5.492
			c-5.291-0.1-9.675-0.181-14.982-0.275V-2.259z"/>
		<path id="Path_8_1_" fill="#E2202B" d="M59.428,0.955c-0.042,1.4-0.069,2.682-0.112,4.052c-5.7-0.1-10.625-0.188-16.337-0.288
			v-5.283c1.814,0.17,2.834,0.3,4.652,0.47c3.916,0.351,7.849,0.7,11.8,1.049"/>
		<path id="Path_9_1_" fill="#E2202B" d="M24.18,9.044c5.282,0.295,9.661,0.575,14.982,0.865V15.5
			c-5.291,0.116-9.675,0.241-14.982,0.353V9.044z"/>
		<path id="Path_10_1_" fill="#E2202B" d="M59.359,11.014c-0.027,1.353-0.072,2.657-0.118,4.066
			c-5.681,0.114-10.574,0.26-16.263,0.385v-5.363C48.69,10.402,53.626,10.708,59.359,11.014"/>
		<path id="Path_11_1_" fill="#E2202B" d="M24.18,20.36c5.3,0.083,9.661,0.157,14.982,0.242v5.613
			c-5.3,0.293-9.675,0.6-14.982,0.912V20.36z"/>
		<path id="Path_12_1_" fill="#E2202B" d="M59.189,20.935c-0.137,1.485-0.251,2.767-0.394,4.205c-1.3,0.074-2.919,0.17-4.538,0.255
			c-4.026,0.222-7.255,0.467-11.278,0.691v-5.41C48.621,20.763,53.499,20.839,59.189,20.935"/>
	</g>
	<g id="Group_3_1_" transform="translate(89.213 50.17)">
		<path id="Path_13_1_" fill="#0C0F14" d="M-8.806,3.058c0.413-0.013,0.823-0.087,1.214-0.221v1.435
			c-0.561,0.231-1.164,0.341-1.771,0.324c-0.619,0.055-1.232-0.157-1.684-0.584c-0.388-0.5-0.576-1.125-0.528-1.756v-3.408h-0.924
			v-0.816l1.064-0.646l0.555-1.494h1.235v1.507h1.977v1.449h-1.978v3.408c-0.019,0.226,0.064,0.449,0.228,0.606
			C-9.245,3-9.027,3.07-8.806,3.058z"/>
		<path id="Path_14_1_" fill="#0C0F14" d="M-1.038,4.469l-0.374-0.962H-1.46c-0.262,0.358-0.605,0.65-1,0.852
			c-0.426,0.174-0.884,0.255-1.344,0.237c-0.59,0.032-1.168-0.178-1.6-0.581c-0.412-0.451-0.623-1.05-0.584-1.659
			c-0.048-0.653,0.251-1.283,0.787-1.66c0.722-0.409,1.543-0.613,2.373-0.59L-1.6,0.068v-0.311c0.069-0.526-0.302-1.009-0.829-1.077
			C-2.519-1.332-2.61-1.331-2.7-1.317c-0.693,0.031-1.371,0.205-1.993,0.512l-0.639-1.3c0.836-0.431,1.765-0.65,2.706-0.639
			c0.777-0.051,1.548,0.168,2.183,0.619C0.089-1.648,0.369-0.952,0.315-0.24v4.712L-1.038,4.469z M-1.608,1.195l-0.747,0.022
			c-0.437-0.014-0.87,0.092-1.252,0.306c-0.277,0.19-0.434,0.513-0.411,0.848c0,0.543,0.312,0.814,0.935,0.814
			C-2.688,3.204-2.302,3.066-2.01,2.8c0.272-0.27,0.417-0.642,0.4-1.024L-1.608,1.195z"/>
		<path id="Path_15_1_" fill="#0C0F14" d="M7.861,2.371c0.036,0.643-0.247,1.262-0.756,1.655c-0.673,0.427-1.466,0.626-2.261,0.57
			c-0.44,0.007-0.881-0.026-1.315-0.1C3.18,4.43,2.839,4.328,2.511,4.19v-1.6c0.39,0.18,0.795,0.322,1.212,0.425
			c0.387,0.104,0.785,0.161,1.185,0.17c0.7,0,1.05-0.203,1.051-0.608C5.964,2.441,5.913,2.308,5.818,2.21
			C5.675,2.078,5.514,1.969,5.339,1.884C5.111,1.765,4.807,1.625,4.427,1.466c-0.424-0.163-0.826-0.376-1.2-0.633
			C2.989,0.66,2.798,0.431,2.67,0.166c-0.123-0.293-0.183-0.61-0.174-0.928C2.472-1.341,2.749-1.892,3.227-2.22
			C3.848-2.598,4.57-2.777,5.296-2.734c0.859,0.002,1.708,0.192,2.487,0.555L7.201-0.788C6.848-0.938,6.515-1.061,6.21-1.159
			C5.906-1.257,5.588-1.307,5.268-1.307c-0.57,0-0.856,0.156-0.856,0.463c0.009,0.187,0.113,0.356,0.275,0.45
			c0.386,0.221,0.789,0.409,1.206,0.563c0.429,0.158,0.836,0.367,1.214,0.624c0.241,0.175,0.436,0.406,0.568,0.673
			C7.805,1.75,7.869,2.059,7.861,2.371z"/>
		<path id="Path_16_1_" fill="#0C0F14" d="M12.975,3.058c0.413-0.013,0.823-0.087,1.214-0.221v1.435
			c-0.56,0.231-1.163,0.341-1.769,0.324c-0.62,0.056-1.234-0.156-1.686-0.584c-0.389-0.499-0.577-1.125-0.528-1.756v-3.408H9.285
			v-0.816l1.058-0.646L10.9-4.108h1.234v1.507h1.981v1.449h-1.977v3.408c-0.019,0.226,0.066,0.449,0.23,0.606
			C12.54,2.999,12.756,3.068,12.975,3.058z"/>
		<path id="Path_17_1_" fill="#0C0F14" d="M15.243-2.604h2.113l1.335,3.979c0.124,0.398,0.202,0.81,0.233,1.226h0.036
			c0.047-0.417,0.14-0.827,0.277-1.223l1.309-3.982h2.066l-2.99,7.975c-0.218,0.657-0.627,1.234-1.176,1.657
			c-0.519,0.37-1.143,0.564-1.78,0.552c-0.33,0.001-0.659-0.036-0.98-0.11V5.944c0.249,0.056,0.504,0.082,0.76,0.08
			c0.328,0.007,0.647-0.103,0.9-0.311c0.285-0.252,0.493-0.579,0.6-0.944l0.116-0.349L15.243-2.604z"/>
		<path id="Path_18_1_" fill="#0C0F14" d="M27.46,4.596c-0.982,0.059-1.945-0.282-2.672-0.944c-0.674-0.719-1.022-1.684-0.96-2.668
			c-0.063-0.995,0.255-1.977,0.888-2.747c0.639-0.667,1.538-1.021,2.46-0.97c0.862-0.051,1.707,0.258,2.333,0.854
			c0.583,0.643,0.882,1.493,0.832,2.359v0.937h-4.558c-0.007,0.474,0.168,0.933,0.488,1.282c0.344,0.323,0.806,0.49,1.277,0.461
			c0.406,0.002,0.81-0.042,1.206-0.132c0.41-0.099,0.808-0.241,1.188-0.423v1.492c-0.343,0.17-0.707,0.297-1.082,0.376
			C28.399,4.562,27.93,4.603,27.46,4.596z M27.187-1.363c-0.362-0.019-0.714,0.123-0.96,0.389c-0.253,0.312-0.394,0.699-0.4,1.1
			h2.706c0.019-0.401-0.114-0.794-0.373-1.1C27.907-1.238,27.552-1.38,27.187-1.363z"/>
		<path id="Path_19_1_" fill="#0C0F14" d="M35.746,4.596c-0.982,0.058-1.945-0.282-2.672-0.944c-0.675-0.718-1.023-1.684-0.96-2.668
			c-0.063-0.995,0.254-1.978,0.888-2.748c0.639-0.667,1.538-1.021,2.46-0.97c0.862-0.051,1.707,0.259,2.333,0.854
			c0.582,0.643,0.883,1.493,0.834,2.359v0.937h-4.56c-0.007,0.474,0.167,0.932,0.487,1.282c0.345,0.322,0.806,0.488,1.277,0.461
			c0.406,0.002,0.81-0.042,1.206-0.132c0.41-0.099,0.809-0.241,1.19-0.423v1.493c-0.343,0.17-0.707,0.297-1.082,0.376
			C36.685,4.562,36.216,4.603,35.746,4.596z M35.473-1.363c-0.362-0.019-0.714,0.123-0.96,0.389c-0.254,0.311-0.395,0.699-0.4,1.1
			h2.706c0.017-0.4-0.116-0.793-0.374-1.1C36.192-1.238,35.838-1.38,35.473-1.363z"/>
		<path id="Path_20_1_" fill="#0C0F14" d="M44.031,4.596c-0.981,0.058-1.944-0.282-2.67-0.944c-0.675-0.718-1.023-1.684-0.96-2.668
			c-0.064-0.995,0.252-1.977,0.885-2.747c0.638-0.667,1.535-1.021,2.456-0.97c0.864-0.051,1.71,0.258,2.337,0.854
			c0.582,0.643,0.883,1.493,0.834,2.359v0.937h-4.558c-0.007,0.474,0.168,0.933,0.488,1.282c0.344,0.322,0.806,0.489,1.277,0.461
			c0.406,0.002,0.81-0.042,1.206-0.132c0.41-0.099,0.809-0.241,1.19-0.423v1.492c-0.344,0.17-0.707,0.296-1.082,0.376
			C44.972,4.562,44.502,4.603,44.031,4.596z M43.76-1.363c-0.362-0.019-0.715,0.123-0.962,0.389c-0.254,0.311-0.395,0.699-0.4,1.1
			h2.706c0.016-0.4-0.117-0.792-0.374-1.1C44.478-1.237,44.124-1.379,43.76-1.363z"/>
		<path id="Path_21_1_" fill="#0C0F14" d="M48.847,3.564c-0.02-0.294,0.081-0.583,0.28-0.8c0.231-0.195,0.53-0.293,0.832-0.271
			c0.296-0.018,0.588,0.082,0.81,0.279c0.204,0.214,0.309,0.505,0.288,0.8c0.015,0.291-0.089,0.576-0.288,0.789
			c-0.221,0.2-0.513,0.303-0.81,0.286c-0.301,0.018-0.597-0.082-0.825-0.28C48.93,4.151,48.826,3.86,48.847,3.564z"/>
		<path id="Path_22_1_" fill="#0C0F14" d="M56.317,4.596c-2.2,0-3.3-1.208-3.3-3.623c-0.068-1,0.254-1.988,0.9-2.755
			c0.685-0.668,1.621-1.013,2.576-0.951c0.76-0.011,1.513,0.152,2.2,0.479l-0.57,1.492c-0.3-0.119-0.586-0.221-0.848-0.3
			C57.021-1.14,56.757-1.18,56.492-1.18c-1.004,0-1.506,0.713-1.507,2.138c0,1.382,0.502,2.074,1.507,2.075
			c0.349,0.003,0.696-0.048,1.029-0.15c0.337-0.109,0.656-0.265,0.948-0.465v1.65c-0.289,0.19-0.608,0.329-0.944,0.411
			C57.128,4.565,56.723,4.604,56.317,4.596z"/>
		<path id="Path_23_1_" fill="#0C0F14" d="M67.163,0.923c0.06,0.984-0.266,1.952-0.908,2.7c-0.667,0.673-1.591,1.028-2.538,0.975
			c-0.629,0.013-1.25-0.141-1.8-0.445c-0.519-0.297-0.938-0.744-1.2-1.282c-0.288-0.607-0.431-1.274-0.416-1.946
			c-0.063-0.984,0.263-1.953,0.906-2.7c0.671-0.668,1.595-1.017,2.54-0.96c0.629-0.014,1.25,0.139,1.8,0.443
			c0.517,0.293,0.933,0.736,1.194,1.27C67.034-0.416,67.179,0.25,67.163,0.923z M62.276,0.923c-0.035,0.55,0.084,1.1,0.344,1.586
			c0.251,0.367,0.679,0.572,1.123,0.537c0.44,0.037,0.865-0.167,1.112-0.532c0.255-0.49,0.371-1.041,0.336-1.592
			c0.035-0.546-0.083-1.092-0.34-1.575c-0.515-0.617-1.432-0.7-2.049-0.185c-0.067,0.056-0.129,0.118-0.185,0.185
			C62.357-0.17,62.239,0.376,62.276,0.923L62.276,0.923z"/>
		<path id="Path_24_1_" fill="#0C0F14" d="M75.724,4.47h-1.928V0.337c0.027-0.399-0.063-0.798-0.259-1.147
			c-0.182-0.262-0.489-0.407-0.807-0.383c-0.431-0.031-0.845,0.178-1.076,0.543c-0.263,0.558-0.378,1.175-0.333,1.791v3.326h-1.93
			v-7.068h1.474l0.259,0.9h0.109c0.194-0.328,0.479-0.593,0.821-0.761c0.384-0.189,0.807-0.283,1.234-0.275
			c0.857-0.102,1.696,0.302,2.151,1.036h0.17c0.197-0.333,0.49-0.598,0.84-0.762c0.39-0.185,0.818-0.278,1.25-0.271
			c0.664-0.05,1.32,0.173,1.816,0.617c0.461,0.549,0.684,1.26,0.619,1.975v4.611h-1.935V0.337c0.028-0.399-0.062-0.798-0.257-1.147
			c-0.182-0.262-0.489-0.407-0.807-0.383c-0.415-0.027-0.815,0.162-1.058,0.5c-0.27,0.491-0.391,1.049-0.349,1.608L75.724,4.47z"/>
	</g>
</g>
</svg>
