<svg xmlns="http://www.w3.org/2000/svg" width="155" height="51.154" viewBox="0 0 155 51.154">
  <g id="Group_4" data-name="Group 4" transform="translate(-27.611 -50.17)">
    <g id="Group_1" data-name="Group 1" transform="translate(27.611 56.924)">
      <path id="Path_1" data-name="Path 1" d="M37.847,92.67c-1.5.081-2.38.119-2.635.119q-7.6,0-7.6-7.259V53.9l6.378.525v6.788H37.3v2.852H33.989V85.382a13.372,13.372,0,0,0,.286,3.551,2.251,2.251,0,0,0,2.4,1.362,7.88,7.88,0,0,0,1.172-.094Z" transform="translate(-27.611 -53.904)" fill="#fff"/>
      <path id="Path_2" data-name="Path 2" d="M44.479,66.627v-.986a22.643,22.643,0,0,0-.143-3.259c-.257-1.373-.879-2.118-1.87-2.228-.288-.033-.91-.047-1.87-.047l-1.7.166v-2.2q2.811-.122,4.061-.121,4.129,0,6.005,1.738t1.872,5.524V89.282H42.585q-8.557,0-8.557-8.416V73.792q0-7.285,7.959-7.286A16.044,16.044,0,0,1,44.479,66.627Zm0,2.516-1.868-.121q-1.552-.071-2.011,1.823a15.514,15.514,0,0,0-.194,3.093v6.423q0,4,.557,5.177a1.655,1.655,0,0,0,1.648.915h1.868Z" transform="translate(-22.421 -50.634)" fill="#fff"/>
      <path id="Path_3" data-name="Path 3" d="M50.867,65.266a3.786,3.786,0,0,0,1.15,2.9c.08.081.751.526,2.013,1.342a32.8,32.8,0,0,1,4.987,3.717,7.681,7.681,0,0,1,2.422,5.488q0,6.091-1.129,8.007-1.628,2.759-7.262,2.757-4.314,0-6.114-1.438-2.04-1.628-2.039-5.8V77.276h6.139q0,8.077.478,8.845a1.673,1.673,0,0,0,1.536.767q1.557,0,1.917-1.941a28.185,28.185,0,0,0,.1-3.142V77.587q0-1.178-3.189-3.549-2.228-1.511-4.435-3.044a5.778,5.778,0,0,1-2.518-4.556c-.014-.365-.024-.886-.024-1.557q0-3.883,2.062-5.49Q48.779,58,52.782,58q4.914,0,6.548,2.111,1.386,1.8,1.389,6.855H54.75V65.239q0-4.77-1.968-4.77-1.506,0-1.845,1.823C50.889,62.578,50.867,63.571,50.867,65.266Z" transform="translate(-13.631 -50.591)" fill="#fff"/>
      <path id="Path_4" data-name="Path 4" d="M65.669,92.67c-1.5.081-2.382.119-2.635.119q-7.6,0-7.6-7.259V53.9l6.378.525v6.788h3.308v2.852H61.811V85.382a13.372,13.372,0,0,0,.286,3.551,2.25,2.25,0,0,0,2.4,1.362,7.866,7.866,0,0,0,1.174-.094Z" transform="translate(-5.109 -53.904)" fill="#fff"/>
      <path id="Path_5" data-name="Path 5" d="M72.767,57.947h6.3v31.31a4.887,4.887,0,0,1-2.18,4.278,10.684,10.684,0,0,1-6.116,1.5,15.49,15.49,0,0,1-5.633-1l.025-2.473a11.335,11.335,0,0,0,4.063,1.319,6.1,6.1,0,0,0,2.312-.286,2.457,2.457,0,0,0,1.105-1.919,8.136,8.136,0,0,0,.119-1.414q-5.288,0-7.568-1.487-2.862-1.869-2.861-6.9V57.947h6.378V80.074q0,4.941.819,5.877a1.728,1.728,0,0,0,1.376.5h1.856Z" transform="translate(0.476 -50.634)" fill="#fff"/>
    </g>
    <g id="Group_2" data-name="Group 2" transform="translate(110.683 63.017)">
      <path id="Path_6" data-name="Path 6" d="M89.627,57.346c5.548.5,11.1.991,16.641,1.5v6.846c-2.485-.056-4.989-.1-7.49-.139.045,1.48.083,2.809.128,4.285,2.442.143,4.9.268,7.362.411v7.042c-2.541.042-5.1.1-7.66.154.033,1.436.061,2.753.09,4.12,2.512.045,5.043.083,7.57.128v6.973q-8.384.459-16.769.948a12.138,12.138,0,0,1-9.525-3.283c-2.073-1.928-4.321-3.692-6.436-5.605V66.415c2.062-1.9,6.307-5.672,8.556-7.349a10.507,10.507,0,0,1,7.534-1.72" transform="translate(-73.538 -57.273)" fill="#fff"/>
      <path id="Path_7" data-name="Path 7" d="M93.817,58.295c5.307.474,9.679.937,14.982,1.413V65.2c-5.291-.1-9.675-.181-14.982-.275Z" transform="translate(-57.137 -56.446)" fill="#fff"/>
      <path id="Path_8" data-name="Path 8" d="M120.659,60.751c-.042,1.4-.069,2.682-.112,4.052-5.7-.1-10.625-.188-16.337-.288V59.232c1.814.17,2.834.3,4.652.47q5.874.526,11.8,1.049" transform="translate(-48.731 -55.688)" fill="#fff"/>
      <path id="Path_9" data-name="Path 9" d="M93.817,64.544c5.282.295,9.661.575,14.982.865V71c-5.291.116-9.675.241-14.982.353Z" transform="translate(-57.137 -51.392)" fill="#fff"/>
      <path id="Path_10" data-name="Path 10" d="M120.59,66.041c-.027,1.353-.072,2.657-.118,4.066-5.681.114-10.574.26-16.263.385V65.129c5.712.3,10.648.606,16.38.912" transform="translate(-48.731 -50.919)" fill="#fff"/>
      <path id="Path_11" data-name="Path 11" d="M93.817,70.8c5.3.083,9.661.157,14.982.242v5.613c-5.3.293-9.675.6-14.982.912Z" transform="translate(-57.137 -46.332)" fill="#fff"/>
      <path id="Path_12" data-name="Path 12" d="M120.42,71.234c-.137,1.485-.251,2.767-.394,4.205-1.3.074-2.919.17-4.538.255-4.026.222-7.255.467-11.278.691v-5.41c5.642.087,10.52.163,16.21.259" transform="translate(-48.731 -46.191)" fill="#fff"/>
    </g>
    <g id="Group_3" data-name="Group 3" transform="translate(89.213 50.17)">
      <path id="Path_13" data-name="Path 13" d="M65.362,57.336a4.163,4.163,0,0,0,1.214-.221V58.55a4.326,4.326,0,0,1-1.771.324,2.17,2.17,0,0,1-1.684-.584,2.549,2.549,0,0,1-.528-1.756V53.126h-.924V52.31l1.064-.646.555-1.494h1.235v1.507H66.5v1.449H64.522v3.408a.751.751,0,0,0,.228.606A.907.907,0,0,0,65.362,57.336Z" transform="translate(-61.668 -50.17)" fill="#fff"/>
      <path id="Path_14" data-name="Path 14" d="M70.222,58.138l-.374-.962H69.8a2.84,2.84,0,0,1-1,.852,3.219,3.219,0,0,1-1.344.237,2.173,2.173,0,0,1-1.6-.581,2.245,2.245,0,0,1-.584-1.659,1.863,1.863,0,0,1,.787-1.66,4.556,4.556,0,0,1,2.373-.59l1.228-.038v-.311a.961.961,0,0,0-1.1-1.074,5.008,5.008,0,0,0-1.993.512l-.639-1.3a5.753,5.753,0,0,1,2.706-.639,3.383,3.383,0,0,1,2.183.619,2.3,2.3,0,0,1,.758,1.885v4.712Zm-.57-3.274-.747.022a2.4,2.4,0,0,0-1.252.306.951.951,0,0,0-.411.848q0,.814.935.814a1.488,1.488,0,0,0,1.073-.385,1.358,1.358,0,0,0,.4-1.024Z" transform="translate(-58.76 -49.561)" fill="#fff"/>
      <path id="Path_15" data-name="Path 15" d="M75.323,56.034a1.953,1.953,0,0,1-.756,1.655,3.732,3.732,0,0,1-2.261.57,7.162,7.162,0,0,1-1.315-.1,5.012,5.012,0,0,1-1.018-.306v-1.6a6.78,6.78,0,0,0,1.212.425,4.984,4.984,0,0,0,1.185.17q1.05,0,1.051-.608a.5.5,0,0,0-.141-.367,1.981,1.981,0,0,0-.479-.326q-.342-.179-.912-.418a5.766,5.766,0,0,1-1.2-.633,1.788,1.788,0,0,1-.557-.667,2.235,2.235,0,0,1-.174-.928,1.684,1.684,0,0,1,.731-1.458,3.569,3.569,0,0,1,2.069-.514,5.919,5.919,0,0,1,2.487.555l-.582,1.391c-.353-.15-.686-.273-.991-.371a3.1,3.1,0,0,0-.942-.148c-.57,0-.856.156-.856.463a.552.552,0,0,0,.275.45,7.976,7.976,0,0,0,1.206.563,5.589,5.589,0,0,1,1.214.624,1.825,1.825,0,0,1,.568.673A2.042,2.042,0,0,1,75.323,56.034Z" transform="translate(-54.962 -49.555)" fill="#fff"/>
      <path id="Path_16" data-name="Path 16" d="M77.4,57.336a4.153,4.153,0,0,0,1.214-.221V58.55a4.323,4.323,0,0,1-1.769.324,2.169,2.169,0,0,1-1.686-.584,2.54,2.54,0,0,1-.528-1.756V53.126h-.921V52.31l1.058-.646.557-1.494h1.234v1.507h1.981v1.449H76.563v3.408a.752.752,0,0,0,.23.606A.906.906,0,0,0,77.4,57.336Z" transform="translate(-51.925 -50.17)" fill="#fff"/>
      <path id="Path_17" data-name="Path 17" d="M77.006,51h2.113l1.335,3.979a5.478,5.478,0,0,1,.233,1.226h.036A5.722,5.722,0,0,1,81,54.982L82.309,51h2.066l-2.99,7.975a3.47,3.47,0,0,1-1.176,1.657,2.968,2.968,0,0,1-1.78.552,4.346,4.346,0,0,1-.98-.11V59.548a3.343,3.343,0,0,0,.76.08,1.37,1.37,0,0,0,.9-.311,2.014,2.014,0,0,0,.6-.944l.116-.349Z" transform="translate(-49.263 -49.496)" fill="#fff"/>
      <path id="Path_18" data-name="Path 18" d="M85.384,58.259a3.645,3.645,0,0,1-2.672-.944,3.572,3.572,0,0,1-.96-2.668A3.934,3.934,0,0,1,82.64,51.9a3.165,3.165,0,0,1,2.46-.97,3.116,3.116,0,0,1,2.333.854,3.233,3.233,0,0,1,.832,2.359v.937H83.707a1.858,1.858,0,0,0,.488,1.282,1.715,1.715,0,0,0,1.277.461,5.3,5.3,0,0,0,1.206-.132,6.083,6.083,0,0,0,1.188-.423V57.76a4.556,4.556,0,0,1-1.082.376A6.847,6.847,0,0,1,85.384,58.259ZM85.111,52.3a1.221,1.221,0,0,0-.96.389,1.791,1.791,0,0,0-.4,1.1h2.706a1.588,1.588,0,0,0-.373-1.1A1.264,1.264,0,0,0,85.111,52.3Z" transform="translate(-45.424 -49.555)" fill="#fff"/>
      <path id="Path_19" data-name="Path 19" d="M89.965,58.259a3.647,3.647,0,0,1-2.672-.944,3.565,3.565,0,0,1-.96-2.668,3.934,3.934,0,0,1,.888-2.748,3.165,3.165,0,0,1,2.46-.97,3.119,3.119,0,0,1,2.333.854,3.242,3.242,0,0,1,.834,2.359v.937h-4.56a1.857,1.857,0,0,0,.487,1.282,1.724,1.724,0,0,0,1.277.461,5.282,5.282,0,0,0,1.206-.132,6.015,6.015,0,0,0,1.19-.423V57.76a4.556,4.556,0,0,1-1.082.376A6.847,6.847,0,0,1,89.965,58.259ZM89.692,52.3a1.221,1.221,0,0,0-.96.389,1.779,1.779,0,0,0-.4,1.1h2.706a1.606,1.606,0,0,0-.374-1.1A1.264,1.264,0,0,0,89.692,52.3Z" transform="translate(-41.719 -49.555)" fill="#fff"/>
      <path id="Path_20" data-name="Path 20" d="M94.545,58.259a3.643,3.643,0,0,1-2.67-.944,3.565,3.565,0,0,1-.96-2.668A3.926,3.926,0,0,1,91.8,51.9a3.157,3.157,0,0,1,2.456-.97,3.122,3.122,0,0,1,2.337.854,3.242,3.242,0,0,1,.834,2.359v.937H92.869a1.858,1.858,0,0,0,.488,1.282,1.718,1.718,0,0,0,1.277.461,5.282,5.282,0,0,0,1.206-.132,6.056,6.056,0,0,0,1.19-.423V57.76a4.584,4.584,0,0,1-1.082.376A6.878,6.878,0,0,1,94.545,58.259ZM94.274,52.3a1.227,1.227,0,0,0-.962.389,1.779,1.779,0,0,0-.4,1.1h2.706a1.615,1.615,0,0,0-.374-1.1A1.267,1.267,0,0,0,94.274,52.3Z" transform="translate(-38.014 -49.555)" fill="#fff"/>
      <path id="Path_21" data-name="Path 21" d="M95.584,54.892a1.076,1.076,0,0,1,.28-.8,1.162,1.162,0,0,1,.832-.271,1.118,1.118,0,0,1,.81.279,1.052,1.052,0,0,1,.288.8,1.078,1.078,0,0,1-.288.789,1.11,1.11,0,0,1-.81.286,1.151,1.151,0,0,1-.825-.28A1.061,1.061,0,0,1,95.584,54.892Z" transform="translate(-34.237 -47.22)" fill="#fff"/>
      <path id="Path_22" data-name="Path 22" d="M101.191,58.259q-3.3,0-3.3-3.623a3.868,3.868,0,0,1,.9-2.755,3.376,3.376,0,0,1,2.576-.951,4.949,4.949,0,0,1,2.2.479l-.57,1.492c-.3-.119-.586-.221-.848-.3a2.671,2.671,0,0,0-.783-.118q-1.506,0-1.507,2.138,0,2.073,1.507,2.075a3.4,3.4,0,0,0,1.029-.15,3.7,3.7,0,0,0,.948-.465v1.65a3.031,3.031,0,0,1-.944.411A5.181,5.181,0,0,1,101.191,58.259Z" transform="translate(-32.374 -49.555)" fill="#fff"/>
      <path id="Path_23" data-name="Path 23" d="M108.775,54.586a3.789,3.789,0,0,1-.908,2.7,3.31,3.31,0,0,1-2.538.975,3.575,3.575,0,0,1-1.8-.445,2.985,2.985,0,0,1-1.2-1.282,4.314,4.314,0,0,1-.416-1.946,3.769,3.769,0,0,1,.906-2.7,3.314,3.314,0,0,1,2.54-.96,3.562,3.562,0,0,1,1.8.443,2.949,2.949,0,0,1,1.194,1.27A4.24,4.24,0,0,1,108.775,54.586Zm-4.887,0a2.964,2.964,0,0,0,.344,1.586,1.241,1.241,0,0,0,1.123.537,1.219,1.219,0,0,0,1.112-.532,3.035,3.035,0,0,0,.336-1.592,2.954,2.954,0,0,0-.34-1.575,1.455,1.455,0,0,0-2.234,0A2.916,2.916,0,0,0,103.887,54.586Z" transform="translate(-29.112 -49.555)" fill="#fff"/>
      <path id="Path_24" data-name="Path 24" d="M113.275,58.133h-1.928V54a2.057,2.057,0,0,0-.259-1.147.9.9,0,0,0-.807-.383,1.175,1.175,0,0,0-1.076.543,3.59,3.59,0,0,0-.333,1.791v3.326h-1.93V51.062h1.474l.259.9h.109a1.96,1.96,0,0,1,.821-.761,2.681,2.681,0,0,1,1.234-.275,2.222,2.222,0,0,1,2.151,1.036h.17A1.925,1.925,0,0,1,114,51.2a2.806,2.806,0,0,1,1.25-.271,2.451,2.451,0,0,1,1.816.617,2.691,2.691,0,0,1,.619,1.975v4.611h-1.935V54a2.058,2.058,0,0,0-.257-1.147.9.9,0,0,0-.807-.383,1.208,1.208,0,0,0-1.058.5,2.885,2.885,0,0,0-.349,1.608Z" transform="translate(-25.051 -49.555)" fill="#fff"/>
    </g>
  </g>
</svg>
